<?xml version="1.0" encoding="UTF-8"?>
<svg width="120px" height="60px" viewBox="0 0 120 60" version="1.1" xmlns="http://www.w3.org/2000/svg" xmlns:xlink="http://www.w3.org/1999/xlink">
    <!-- Generator: Sketch 54.1 (76490) - https://sketchapp.com -->
    <title>국민은행</title>
    <desc>Created with Sketch.</desc>
    <defs>
        <polygon id="path-1" points="0.3433 0.8472 7 0.8472 7 5.8172 0.3433 5.8172"></polygon>
        <polygon id="path-3" points="0 0.969 19.6969 0.969 19.6969 14.9996656 0 14.9996656"></polygon>
    </defs>
    <g id="Page-1" stroke="none" stroke-width="1" fill="none" fill-rule="evenodd">
        <g id="고객사" transform="translate(-476.000000, -394.000000)">
            <g id="국민은행" transform="translate(476.000000, 394.000000)">
                <rect id="Rectangle" fill="#FFFFFF" x="0" y="0" width="120" height="60"></rect>
                <g id="Group-24-Copy" transform="translate(19.000000, 24.000000)">
                    <path d="M56.538,7.8865 L62.213,7.8865 L62.213,3.0945 L56.538,3.0945 L56.538,7.8865 Z M57.731,6.8415 L61.024,6.8415 L61.024,4.1335 L57.731,4.1335 L57.731,6.8415 Z" id="Fill-1" fill="#7D7367"></path>
                    <polygon id="Fill-2" fill="#7D7367" points="51.019 7.0618 51.019 8.5588 54.529 8.5588 54.529 12.4758 53.331 12.4758 53.331 9.5948 46.287 9.5948 46.287 8.5588 49.823 8.5588 49.823 7.0618 45.553 7.0618 45.553 6.0278 53.274 6.0278 53.274 3.9578 46.417 3.9578 46.417 2.9288 54.474 2.9288 54.474 6.0208 55.333 6.0208 55.333 7.0618"></polygon>
                    <polygon id="Fill-3" fill="#7D7367" points="65.1509 12.4363 57.6189 12.4363 57.6189 8.9153 58.8179 8.9153 58.8179 11.3993 65.1509 11.3993"></polygon>
                    <polygon id="Fill-4" fill="#7D7367" points="63.866 9.1565 65.057 9.1565 65.057 2.8645 63.866 2.8645"></polygon>
                    <polygon id="Fill-5" fill="#7D7367" points="66.124 8.9125 75.897 8.9125 75.897 7.8785 66.124 7.8785"></polygon>
                    <polygon id="Fill-6" fill="#7D7367" points="67.1812 8.5574 67.1812 12.4364 74.9992 12.4364 74.9992 11.4014 68.3722 11.4014 68.3722 8.5574"></polygon>
                    <polygon id="Fill-7" fill="#7D7367" points="83.8053 2.8644 83.8053 4.6924 83.1403 4.6924 83.1403 2.8644 81.9783 2.8644 81.9783 7.6754 83.1403 7.6754 83.1403 5.6904 83.8053 5.6904 83.8053 7.6754 84.9683 7.6754 84.9683 2.8644"></polygon>
                    <polygon id="Fill-8" fill="#7D7367" points="78.1372 2.4446 78.1372 3.3336 76.0082 3.3336 76.0082 4.3466 81.4452 4.3466 81.4452 3.3336 79.3302 3.3336 79.3302 2.4446"></polygon>
                    <g id="Group-23" transform="translate(0.000000, 0.031500)">
                        <g id="Group-11" transform="translate(78.000000, 7.000000)">
                            <mask id="mask-2" fill="white">
                                <use xlink:href="#path-1"></use>
                            </mask>
                            <g id="Clip-10"></g>
                            <path d="M3.6733,0.8472 C1.8313,0.8472 0.3433,1.6652 0.3433,3.3322 C0.3433,4.9852 1.8313,5.8172 3.6733,5.8172 C5.5103,5.8172 7.0003,4.9852 7.0003,3.3322 C7.0003,1.6652 5.5103,0.8472 3.6733,0.8472 M3.6733,4.7362 C2.5183,4.7362 1.5823,4.3022 1.5823,3.3312 C1.5823,2.3682 2.5183,1.9282 3.6733,1.9282 C4.8273,1.9282 5.7633,2.3682 5.7633,3.3312 C5.7633,4.3022 4.8273,4.7362 3.6733,4.7362" id="Fill-9" fill="#7D7367" mask="url(#mask-2)"></path>
                        </g>
                        <path d="M71.0103,2.3614 C69.0793,2.3614 67.5143,3.1934 67.5143,4.8854 C67.5143,6.5664 69.0793,7.4104 71.0103,7.4104 C72.9413,7.4104 74.5063,6.5664 74.5063,4.8854 C74.5063,3.1934 72.9413,2.3614 71.0103,2.3614 M71.0103,6.3184 C69.7733,6.3184 68.7743,5.8764 68.7743,4.8844 C68.7743,3.9024 69.7733,3.4524 71.0103,3.4524 C72.2443,3.4524 73.2473,3.9024 73.2473,4.8844 C73.2473,5.8764 72.2443,6.3184 71.0103,6.3184" id="Fill-12" fill="#7D7367"></path>
                        <path d="M78.7271,3.5704 C77.3171,3.5704 76.1761,4.2424 76.1761,5.6084 C76.1761,6.9624 77.3171,7.6484 78.7271,7.6484 C80.1341,7.6484 81.2781,6.9624 81.2781,5.6084 C81.2781,4.2424 80.1341,3.5704 78.7271,3.5704 M78.7271,6.5544 C77.9971,6.5544 77.4061,6.2464 77.4061,5.5504 C77.4061,4.8594 77.9971,4.5434 78.7271,4.5434 C79.4541,4.5434 80.0441,4.8594 80.0441,5.5504 C80.0441,6.2464 79.4541,6.5544 78.7271,6.5544" id="Fill-14" fill="#7D7367"></path>
                        <polygon id="Fill-16" fill="#7D7367" points="24.1543 2.9117 25.6763 2.9117 25.6763 7.1777 30.7973 2.9117 32.9513 2.9117 27.5393 7.2157 33.4003 12.4417 31.2483 12.4417 25.6763 7.3347 25.6763 12.4417 24.1543 12.4417"></polygon>
                        <path d="M35.9795,11.3794 L38.9755,11.3794 C40.8355,11.3794 41.3285,10.6524 41.3285,9.7304 C41.3285,8.6354 40.5725,8.0274 38.8955,8.0274 L35.9795,8.0274 L35.9795,11.3794 Z M35.9795,6.9444 L39.0705,6.9444 C40.2185,6.9444 41.0665,6.5084 41.0665,5.4924 C41.0665,4.6074 40.6485,4.0164 38.8955,4.0164 L35.9795,4.0164 L35.9795,6.9444 Z M34.4615,2.9314 L39.1455,2.9314 C41.3745,2.9314 42.5395,3.6714 42.5395,5.2894 C42.5395,6.4414 41.7355,7.2334 40.6665,7.4464 L40.6665,7.4864 C42.1995,7.6694 42.9245,8.6754 42.9245,9.8094 C42.9245,11.2324 41.8825,12.4624 39.2935,12.4624 L34.4615,12.4624 L34.4615,2.9314 Z" id="Fill-18" fill="#7D7367"></path>
                        <g id="Group-22">
                            <mask id="mask-4" fill="white">
                                <use xlink:href="#path-3"></use>
                            </mask>
                            <g id="Clip-21"></g>
                            <path d="M19.3789,8.1685 C19.3789,8.1685 19.2079,8.0615 19.2079,8.0615 C18.6269,7.4815 17.8179,7.2295 16.7359,7.2915 C15.8359,7.3475 15.1219,7.7035 14.5769,8.0365 C14.5769,8.0275 14.5759,8.0205 14.5759,8.0115 C14.5759,7.7295 14.6079,7.4235 14.6389,7.1265 C14.6709,6.8255 14.7039,6.5185 14.7039,6.2275 C14.7039,5.9305 14.6699,5.6495 14.5669,5.4095 C14.5419,5.3465 14.4849,5.3105 14.4139,5.3105 C14.1219,5.3165 13.5539,5.5165 13.4169,5.6365 L13.3419,5.8005 C13.3359,6.1235 13.2659,7.0225 13.1949,7.1315 C13.1969,7.1275 13.1559,7.2395 13.1559,7.2395 C13.0339,8.5255 13.0309,9.6535 13.1449,10.6235 C13.1569,10.7205 13.3439,10.8675 13.4879,10.9195 C13.6449,10.9785 14.1399,10.8455 14.4249,10.7375 C14.4219,10.7385 14.5329,10.7215 14.5329,10.7215 C14.6239,10.7115 14.6769,10.6355 14.6719,10.5325 C14.6709,10.5305 14.6779,10.2535 14.6779,10.2535 C14.8849,9.4165 15.7189,8.4185 16.7039,8.2685 C17.2609,8.1805 17.7019,8.3215 18.0489,8.7015 C18.0969,8.7695 18.1979,9.3715 17.8309,10.0645 C17.5569,10.5765 17.0099,11.0075 16.2909,11.2775 C15.6099,11.5355 14.8599,11.6415 13.9349,11.6085 C13.8969,11.5835 13.0679,11.0225 13.0679,11.0225 C12.3349,10.5085 11.4239,9.8675 10.5959,9.5535 C10.4519,9.4985 10.1909,9.2815 10.0349,9.1525 L9.9489,9.0825 C9.4729,8.6995 8.5659,8.0965 7.8369,7.6095 C7.8369,7.6095 7.5079,7.3905 7.4439,7.3475 C7.4449,7.3195 7.4459,7.2655 7.4459,7.2655 C7.4669,7.2425 7.9239,6.9675 7.9239,6.9675 C8.5649,6.5925 8.8609,6.4085 8.9249,6.3135 C8.9119,6.3285 9.0099,6.2635 9.0099,6.2635 C9.0149,6.2605 10.5979,5.3645 10.5979,5.3645 C12.1229,4.5255 13.8519,3.5755 14.7589,2.6355 C14.7599,2.6345 14.8029,2.4925 14.8029,2.4925 L14.8229,2.3645 C14.8819,2.1645 14.8869,2.0095 14.8369,1.8305 C14.8229,1.7795 14.7759,1.7215 14.7129,1.7095 C14.0049,1.6395 13.0899,2.0645 12.2589,2.8435 C12.0709,3.0215 11.9139,3.1065 11.7469,3.1975 L11.6199,3.2685 C10.7019,3.7895 8.6349,5.0715 7.5539,5.7645 C7.6259,4.6005 7.8409,2.9465 8.1049,1.5665 L8.0759,1.4025 C8.0719,1.3965 7.9639,1.1935 7.9639,1.1935 L7.8789,1.0435 L7.8549,1.0375 C7.6389,0.9285 7.4629,0.9735 7.3339,1.0065 C7.3349,1.0065 7.1169,1.0855 7.1169,1.0855 L6.8299,1.1895 C6.7729,1.2015 6.7319,1.2355 6.7099,1.2915 C6.1929,2.5405 5.7619,4.5935 5.6609,6.2365 C4.6279,5.5795 3.6729,5.1075 3.2069,4.8795 L3.1929,4.8725 L3.1369,4.8605 C2.9699,4.8385 2.7639,4.7145 2.5659,4.5945 C2.5459,4.5825 2.1739,4.3405 2.1739,4.3405 L1.5729,3.9565 C1.5789,3.9605 1.4159,3.9205 1.4159,3.9205 C1.1569,3.9645 0.6639,4.2975 0.5169,4.5235 C0.4969,4.5535 0.4899,4.5865 0.4899,4.6205 C0.4899,4.6675 0.5039,4.7155 0.5169,4.7615 L0.5439,4.8845 L0.5709,4.9585 C0.8579,5.2525 1.5839,5.7445 2.2959,6.1265 L3.1199,6.5635 L4.3819,7.2535 C4.3829,7.2595 4.5989,7.4235 4.5989,7.4235 C4.5989,7.4235 4.7469,7.5095 4.7469,7.5095 C4.7469,7.5095 4.7629,7.5195 4.7729,7.5255 C4.4369,7.7515 2.4779,9.0605 2.4779,9.0605 L1.2699,9.8585 C1.1559,9.9375 0.6789,10.1515 0.5749,10.1935 C0.3119,10.2995 0.1149,10.4635 0.0319,10.6415 L-0.0001,10.7105 L0.0319,10.7575 L0.1239,10.8265 C0.1209,10.8265 0.2489,10.9075 0.2489,10.9075 L0.3809,10.9995 C0.3839,11.0005 0.5069,11.0185 0.5069,11.0185 C0.7189,11.0265 1.0339,10.9055 1.6219,10.6485 C2.1609,10.4095 3.6279,9.5245 4.2539,9.1475 L4.5219,8.9865 C4.6319,8.9955 4.7549,8.9015 4.8619,8.8195 C4.9889,8.7195 5.2619,8.5525 5.4289,8.4795 C5.4329,8.4775 5.5289,8.4245 5.6179,8.3745 C5.6169,8.4025 5.6159,8.4465 5.6159,8.4465 C5.6449,10.3635 5.7549,11.7575 5.9639,12.8315 L5.9679,12.8515 L5.9879,12.8945 C6.0919,13.0465 6.2089,13.5005 6.3129,13.9005 L6.5519,14.7015 C6.5569,14.7105 6.6199,14.7765 6.6199,14.7765 C6.7559,14.8675 7.1709,15.0275 7.4489,14.9955 L7.5179,14.9865 L7.5619,14.8895 C7.5849,14.7705 7.5929,14.6525 7.5929,14.5225 C7.5929,14.3765 7.5829,14.2155 7.5689,14.0185 L7.5509,13.7295 C7.4629,12.3915 7.3749,10.4565 7.3749,9.1725 C7.3749,9.1365 7.3759,9.1045 7.3759,9.0695 C7.6029,9.2135 8.5979,9.8405 8.5979,9.8405 C10.2909,10.9385 12.8479,12.5985 14.3939,13.0365 C14.4749,13.0615 14.5589,13.0415 14.6179,12.9845 C14.6209,12.9825 14.8569,12.8325 14.8569,12.8325 L14.8999,12.8145 C14.9889,12.7725 15.0489,12.6225 15.0599,12.4595 C16.3619,12.3955 18.1789,11.8935 19.1509,10.6715 C19.5269,10.1965 19.6969,9.6175 19.6969,9.1195 C19.6969,8.7135 19.5839,8.3615 19.3789,8.1685" id="Fill-20" fill="#F7B500" mask="url(#mask-4)"></path>
                        </g>
                    </g>
                </g>
            </g>
        </g>
    </g>
</svg>