<?xml version="1.0" encoding="UTF-8"?>
<svg width="120px" height="60px" viewBox="0 0 120 60" version="1.1" xmlns="http://www.w3.org/2000/svg" xmlns:xlink="http://www.w3.org/1999/xlink">
    <!-- Generator: Sketch 54.1 (76490) - https://sketchapp.com -->
    <title>하이트진로</title>
    <desc>Created with Sketch.</desc>
    <defs>
        <radialGradient cx="85.0969844%" cy="71.9011378%" fx="85.0969844%" fy="71.9011378%" r="121.29811%" gradientTransform="translate(0.850970,0.719011),scale(1.000000,0.282972),translate(-0.850970,-0.719011)" id="radialGradient-1">
            <stop stop-color="#FAFDFE" offset="0%"></stop>
            <stop stop-color="#D8F0FA" offset="7%"></stop>
            <stop stop-color="#8CD3F1" offset="25%"></stop>
            <stop stop-color="#50BCEA" offset="41%"></stop>
            <stop stop-color="#25ACE4" offset="54%"></stop>
            <stop stop-color="#0AA2E1" offset="64%"></stop>
            <stop stop-color="#009EE0" offset="71%"></stop>
        </radialGradient>
        <radialGradient cx="45.3821127%" cy="31.9346816%" fx="45.3821127%" fy="31.9346816%" r="82.8367171%" gradientTransform="translate(0.453821,0.319347),scale(1.000000,0.785708),translate(-0.453821,-0.319347)" id="radialGradient-2">
            <stop stop-color="#F8F8FC" offset="0%"></stop>
            <stop stop-color="#F1F1F8" offset="5%"></stop>
            <stop stop-color="#DCDCEC" offset="11%"></stop>
            <stop stop-color="#BBBBD9" offset="20%"></stop>
            <stop stop-color="#8E8DBE" offset="29%"></stop>
            <stop stop-color="#8584B9" offset="31%"></stop>
            <stop stop-color="#7A7DB5" offset="33%"></stop>
            <stop stop-color="#5060A3" offset="42%"></stop>
            <stop stop-color="#2E4994" offset="51%"></stop>
            <stop stop-color="#16398A" offset="60%"></stop>
            <stop stop-color="#082F84" offset="68%"></stop>
            <stop stop-color="#032C82" offset="75%"></stop>
        </radialGradient>
        <radialGradient cx="6.9621812%" cy="836.480447%" fx="6.9621812%" fy="836.480447%" r="56.9532204%" gradientTransform="translate(0.069622,8.364804),scale(1.000000,0.785708),translate(-0.069622,-8.364804)" id="radialGradient-3">
            <stop stop-color="#F8F8FC" offset="0%"></stop>
            <stop stop-color="#F1F1F8" offset="5%"></stop>
            <stop stop-color="#DCDCEC" offset="11%"></stop>
            <stop stop-color="#BBBBD9" offset="20%"></stop>
            <stop stop-color="#8E8DBE" offset="29%"></stop>
            <stop stop-color="#8584B9" offset="31%"></stop>
            <stop stop-color="#7A7DB5" offset="33%"></stop>
            <stop stop-color="#5060A3" offset="42%"></stop>
            <stop stop-color="#2E4994" offset="51%"></stop>
            <stop stop-color="#16398A" offset="60%"></stop>
            <stop stop-color="#082F84" offset="68%"></stop>
            <stop stop-color="#032C82" offset="75%"></stop>
        </radialGradient>
    </defs>
    <g id="Page-1" stroke="none" stroke-width="1" fill="none" fill-rule="evenodd">
        <g id="고객사" transform="translate(-1096.000000, -470.000000)">
            <g id="하이트진로" transform="translate(1096.000000, 470.000000)">
                <rect id="Rectangle" fill="#FFFFFF" x="0" y="0" width="120" height="60"></rect>
                <g id="하이트진로-copy" transform="translate(23.000000, 21.000000)" fill-rule="nonzero">
                    <path d="M14.7619048,0 C14.1904762,1.52380952 13.2380952,2.95238095 11.9047619,4 C13.1428571,5.80952381 14,7.9047619 14.5714286,10.0952381 C14.3809524,10.952381 14.0952381,11.7142857 13.7142857,12.4761905 C12.7619048,8.76190476 11.047619,5.33333333 8.66666667,2.38095238 C7.04761905,3.04761905 5.42857143,3.80952381 3.9047619,4.66666667 C4.57142857,6.0952381 5.80952381,8.66666667 6.76190476,10.2857143 C5.23809524,11.1428571 3.9047619,12.1904762 2.76190476,13.5238095 C1.71428571,11.4285714 1.14285714,9.04761905 1.04761905,6.76190476 C0.952380952,7.14285714 0.857142857,7.71428571 0.761904762,8.19047619 C0.285714286,12.3809524 2.0952381,17.1428571 5.33333333,18.6666667 C5.61904762,18.7619048 5.9047619,18.952381 6.19047619,19.047619 C6.76190476,19.2380952 7.33333333,19.3333333 7.9047619,19.4285714 C9.61904762,19.6190476 11.3333333,19.4285714 12.8571429,18.6666667 C17.6190476,16.1904762 18.7619048,8.66666667 14.7619048,0 Z M6.66666667,15.5238095 C7.42857143,15.047619 8.19047619,14.5714286 8.95238095,14.1904762 C9.23809524,14.7619048 9.52380952,15.4285714 9.71428571,16.0952381 L9.71428571,16.0952381 C8.66666667,16.2857143 7.61904762,16 6.66666667,15.5238095 Z" id="Shape" fill="#FFFFFF"></path>
                    <g id="Group" transform="translate(3.809524, 7.619048)">
                        <rect id="Rectangle" fill="#30AFE5" x="0.380952381" y="2.47619048" width="11.2380952" height="9.52380952"></rect>
                        <path d="M1.52380952,8.76190476 C0.19047619,6.76190476 1.23809524,3.61904762 4.0952381,1.61904762 L4.0952381,2.0952381 L11.6190476,2.0952381 L11.6190476,1.71428571 C12.952381,3.71428571 11.9047619,6.85714286 9.04761905,8.85714286 C6.19047619,10.8571429 2.85714286,10.7619048 1.52380952,8.76190476 Z" id="Path" fill="#30AFE5"></path>
                        <path d="M1.52380952,8.76190476 C0.19047619,6.76190476 1.23809524,3.61904762 4,1.71428571 L4,2.19047619 L11.5238095,2.19047619 L11.5238095,1.80952381 C12.8571429,3.80952381 11.7142857,6.95238095 9.04761905,8.85714286 C6.38095238,10.7619048 2.85714286,10.7619048 1.52380952,8.76190476 Z" id="Path" fill="#33AFE6"></path>
                        <path d="M1.52380952,8.76190476 C0.19047619,6.85714286 1.33333333,3.71428571 4,1.71428571 L4,2.19047619 L11.4285714,2.19047619 L11.4285714,1.80952381 C12.7619048,3.71428571 11.7142857,6.85714286 8.95238095,8.85714286 C6.19047619,10.8571429 2.95238095,10.6666667 1.52380952,8.76190476 Z" id="Path" fill="#33AFE6"></path>
                        <path d="M1.61904762,8.76190476 C0.285714286,6.85714286 1.33333333,3.71428571 4.0952381,1.80952381 L4.0952381,2.19047619 L11.4285714,2.19047619 L11.4285714,1.80952381 C12.7619048,3.71428571 11.6190476,6.85714286 8.95238095,8.76190476 C6.28571429,10.6666667 2.95238095,10.6666667 1.61904762,8.76190476 Z" id="Path" fill="#36B0E6"></path>
                        <path d="M1.61904762,8.76190476 C0.285714286,6.85714286 1.42857143,3.71428571 4.0952381,1.80952381 L4.0952381,2.19047619 L11.4285714,2.19047619 L11.4285714,1.80952381 C12.7619048,3.71428571 11.6190476,6.85714286 8.95238095,8.76190476 C6.28571429,10.6666667 2.95238095,10.6666667 1.61904762,8.76190476 Z" id="Path" fill="#38B0E6"></path>
                        <path d="M1.71428571,8.66666667 C0.380952381,6.76190476 1.52380952,3.71428571 4.19047619,1.80952381 L4.19047619,2.19047619 L11.4285714,2.19047619 L11.4285714,1.80952381 C12.7619048,3.71428571 11.7142857,6.76190476 8.95238095,8.66666667 C6.19047619,10.5714286 2.95238095,10.5714286 1.71428571,8.66666667 Z" id="Path" fill="#38B0E6"></path>
                        <path d="M1.71428571,8.66666667 C0.380952381,6.76190476 1.52380952,3.71428571 4.19047619,1.80952381 L4.19047619,2.19047619 L11.4285714,2.19047619 L11.4285714,1.9047619 C12.7619048,3.80952381 11.6190476,6.85714286 8.95238095,8.76190476 C6.28571429,10.6666667 2.95238095,10.5714286 1.71428571,8.66666667 Z" id="Path" fill="#3BB0E6"></path>
                        <path d="M1.71428571,8.66666667 C0.380952381,6.76190476 1.52380952,3.71428571 4.0952381,1.9047619 L4.0952381,2.28571429 L11.3333333,2.28571429 L11.3333333,1.9047619 C12.6666667,3.80952381 11.5238095,6.85714286 8.95238095,8.66666667 C6.38095238,10.4761905 3.04761905,10.5714286 1.71428571,8.66666667 Z" id="Path" fill="#3DB1E6"></path>
                        <path d="M1.71428571,8.66666667 C0.380952381,6.76190476 1.52380952,3.80952381 4.0952381,1.9047619 L4.0952381,2.19047619 L11.2380952,2.19047619 L11.2380952,1.9047619 C12.5714286,3.80952381 11.4285714,6.76190476 8.85714286,8.66666667 C6.28571429,10.5714286 3.04761905,10.4761905 1.71428571,8.66666667 Z" id="Path" fill="#3FB2E6"></path>
                        <path d="M1.71428571,8.57142857 C0.380952381,6.76190476 1.52380952,3.71428571 4.0952381,1.9047619 L4.0952381,2.19047619 L11.2380952,2.19047619 L11.2380952,1.9047619 C12.5714286,3.80952381 11.4285714,6.76190476 8.85714286,8.57142857 C6.28571429,10.3809524 3.04761905,10.4761905 1.71428571,8.57142857 Z" id="Path" fill="#3FB2E6"></path>
                        <path d="M1.80952381,8.57142857 C0.476190476,6.76190476 1.61904762,3.80952381 4.19047619,1.9047619 L4.19047619,2.19047619 L11.2380952,2.19047619 L11.2380952,1.9047619 C12.5714286,3.71428571 11.4285714,6.76190476 8.85714286,8.57142857 C6.28571429,10.3809524 3.04761905,10.4761905 1.80952381,8.57142857 Z" id="Path" fill="#42B2E6"></path>
                        <path d="M1.80952381,8.57142857 C0.571428571,6.76190476 1.61904762,3.80952381 4.19047619,2 L4.19047619,2.28571429 L11.2380952,2.28571429 L11.2380952,2.0952381 C12.5714286,3.9047619 11.4285714,6.85714286 8.85714286,8.76190476 C6.28571429,10.6666667 3.14285714,10.3809524 1.80952381,8.57142857 Z" id="Path" fill="#44B2E7"></path>
                        <path d="M1.80952381,8.57142857 C0.571428571,6.76190476 1.61904762,3.80952381 4.19047619,2 L4.19047619,2.19047619 L11.1428571,2.19047619 L11.1428571,2 C12.3809524,3.80952381 11.3333333,6.76190476 8.76190476,8.57142857 C6.19047619,10.3809524 3.14285714,10.3809524 1.80952381,8.57142857 Z" id="Path" fill="#46B3E7"></path>
                        <path d="M1.9047619,8.57142857 C0.666666667,6.76190476 1.71428571,3.80952381 4.28571429,2 L4.28571429,2.19047619 L11.2380952,2.19047619 L11.2380952,2 C12.4761905,3.80952381 11.4285714,6.76190476 8.95238095,8.57142857 C6.47619048,10.3809524 3.14285714,10.3809524 1.9047619,8.57142857 Z" id="Path" fill="#48B3E7"></path>
                        <path d="M1.9047619,8.47619048 C0.666666667,6.66666667 1.71428571,3.80952381 4.19047619,2 L4.19047619,2.19047619 L11.047619,2.19047619 L11.047619,2 C12.2857143,3.80952381 11.2380952,6.66666667 8.76190476,8.47619048 C6.28571429,10.2857143 3.14285714,10.2857143 1.9047619,8.47619048 Z" id="Path" fill="#48B3E7"></path>
                        <path d="M1.9047619,8.47619048 C0.761904762,6.66666667 1.71428571,3.80952381 4.19047619,2 L4.19047619,2.19047619 L11.047619,2.19047619 L11.047619,2.0952381 C12.2857143,3.9047619 11.2380952,6.76190476 8.76190476,8.57142857 C6.28571429,10.3809524 3.23809524,10.2857143 1.9047619,8.47619048 Z" id="Path" fill="#4AB3E7"></path>
                        <path d="M2,8.47619048 C0.761904762,6.66666667 1.71428571,3.80952381 4.28571429,2.0952381 L4.28571429,2.19047619 L11.047619,2.19047619 L11.047619,2.0952381 C12.2857143,3.9047619 11.2380952,6.76190476 8.76190476,8.47619048 C6.28571429,10.1904762 3.23809524,10.2857143 2,8.47619048 Z" id="Path" fill="#4CB4E7"></path>
                        <path d="M2,8.47619048 C0.761904762,6.66666667 1.80952381,3.80952381 4.28571429,2.0952381 L4.28571429,2.19047619 L11.047619,2.19047619 L11.047619,2.0952381 C12.2857143,3.9047619 11.2380952,6.66666667 8.76190476,8.47619048 C6.28571429,10.2857143 3.23809524,10.1904762 2,8.47619048 Z" id="Path" fill="#4EB5E7"></path>
                        <path d="M2,8.38095238 C0.761904762,6.66666667 1.80952381,3.80952381 4.28571429,2.0952381 L4.28571429,2.19047619 L10.952381,2.19047619 L10.952381,2.0952381 C12.1904762,3.80952381 11.1428571,6.66666667 8.66666667,8.38095238 C6.19047619,10.0952381 3.23809524,10.1904762 2,8.38095238 Z" id="Path" fill="#50B5E7"></path>
                        <path d="M2.0952381,8.38095238 C0.857142857,6.66666667 1.80952381,3.80952381 4.28571429,2.0952381 L4.28571429,2.19047619 L10.952381,2.19047619 L10.952381,2.0952381 C12.0952381,3.80952381 11.1428571,6.57142857 8.66666667,8.38095238 C6.19047619,10.1904762 3.23809524,10.0952381 2.0952381,8.38095238 Z" id="Path" fill="#52B5E8"></path>
                        <path d="M2.0952381,8.38095238 C0.857142857,6.66666667 1.9047619,3.9047619 4.28571429,2.0952381 L4.28571429,2.19047619 L10.8571429,2.19047619 L10.8571429,2.19047619 C12.0952381,3.9047619 11.1428571,6.66666667 8.66666667,8.38095238 C6.19047619,10.0952381 3.33333333,10.0952381 2.0952381,8.38095238 Z" id="Path" fill="#52B5E8"></path>
                        <path d="M2.0952381,8.38095238 C0.952380952,6.66666667 1.9047619,3.9047619 4.38095238,2.19047619 C6.85714286,0.476190476 9.71428571,0.476190476 10.952381,2.19047619 C12.1904762,3.9047619 11.1428571,6.66666667 8.76190476,8.38095238 C6.38095238,10.0952381 3.33333333,10.0952381 2.0952381,8.38095238 Z" id="Path" fill="#54B6E8"></path>
                        <path d="M2.19047619,8.28571429 C0.952380952,6.66666667 1.9047619,3.9047619 4.38095238,2.19047619 C6.85714286,0.476190476 9.71428571,0.476190476 10.8571429,2.19047619 C12,3.9047619 11.047619,6.66666667 8.66666667,8.28571429 C6.28571429,9.9047619 3.33333333,10 2.19047619,8.28571429 Z" id="Path" fill="#55B6E8"></path>
                        <path d="M2.19047619,8.28571429 C1.04761905,6.66666667 2,3.9047619 4.38095238,2.19047619 C6.76190476,0.476190476 9.71428571,0.571428571 10.8571429,2.19047619 C12,3.80952381 11.047619,6.57142857 8.66666667,8.28571429 C6.28571429,10 3.42857143,10 2.19047619,8.28571429 Z" id="Path" fill="#57B7E8"></path>
                        <path d="M2.19047619,8.28571429 C1.04761905,6.57142857 2,3.9047619 4.38095238,2.19047619 C6.76190476,0.476190476 9.61904762,0.571428571 10.7619048,2.19047619 C11.9047619,3.80952381 10.952381,6.57142857 8.57142857,8.28571429 C6.19047619,10 3.42857143,10 2.19047619,8.28571429 Z" id="Path" fill="#59B7E8"></path>
                        <path d="M2.28571429,8.28571429 C1.14285714,6.57142857 2.0952381,3.9047619 4.38095238,2.28571429 C6.66666667,0.666666667 9.61904762,0.666666667 10.7619048,2.28571429 C11.9047619,3.9047619 10.952381,6.66666667 8.66666667,8.28571429 C6.38095238,9.9047619 3.42857143,9.9047619 2.28571429,8.28571429 Z" id="Path" fill="#5AB8E8"></path>
                        <path d="M2.28571429,8.19047619 C1.14285714,6.57142857 2.0952381,3.9047619 4.38095238,2.19047619 C6.66666667,0.476190476 9.52380952,0.571428571 10.7619048,2.19047619 C12,3.80952381 10.952381,6.47619048 8.66666667,8.19047619 C6.38095238,9.9047619 3.42857143,9.9047619 2.28571429,8.19047619 Z" id="Path" fill="#5CB8E9"></path>
                        <path d="M2.28571429,8.19047619 C1.14285714,6.57142857 2.0952381,3.9047619 4.38095238,2.28571429 C6.66666667,0.666666667 9.52380952,0.666666667 10.6666667,2.28571429 C11.8095238,3.9047619 10.8571429,6.57142857 8.57142857,8.19047619 C6.28571429,9.80952381 3.42857143,9.9047619 2.28571429,8.19047619 Z" id="Path" fill="#5EB9E9"></path>
                        <path d="M2.38095238,8.19047619 C1.23809524,6.57142857 2.19047619,3.9047619 4.47619048,2.28571429 C6.76190476,0.666666667 9.52380952,0.666666667 10.6666667,2.28571429 C11.8095238,3.9047619 10.8571429,6.57142857 8.57142857,8.19047619 C6.28571429,9.80952381 3.52380952,9.80952381 2.38095238,8.19047619 Z" id="Path" fill="#5EB9E9"></path>
                        <path d="M2.38095238,8.19047619 C1.23809524,6.57142857 2.19047619,4 4.47619048,2.38095238 C6.76190476,0.761904762 9.52380952,0.761904762 10.6666667,2.38095238 C11.8095238,4 10.8571429,6.57142857 8.57142857,8.19047619 C6.28571429,9.80952381 3.52380952,9.80952381 2.38095238,8.19047619 Z" id="Path" fill="#5FB9E9"></path>
                        <path d="M2.38095238,8.19047619 C1.23809524,6.57142857 2.19047619,4 4.47619048,2.38095238 C6.76190476,0.761904762 9.52380952,0.761904762 10.6666667,2.38095238 C11.8095238,4 10.8571429,6.57142857 8.57142857,8.19047619 C6.28571429,9.80952381 3.61904762,9.71428571 2.38095238,8.19047619 Z" id="Path" fill="#61B9E9"></path>
                        <path d="M2.47619048,8.0952381 C1.33333333,6.47619048 2.28571429,3.9047619 4.57142857,2.38095238 C6.85714286,0.857142857 9.52380952,0.857142857 10.6666667,2.38095238 C11.8095238,3.9047619 10.8571429,6.57142857 8.57142857,8.0952381 C6.28571429,9.61904762 3.61904762,9.71428571 2.47619048,8.0952381 Z" id="Path" fill="#63BAE9"></path>
                        <path d="M2.47619048,8.0952381 C1.33333333,6.47619048 2.28571429,4 4.47619048,2.38095238 C6.66666667,0.761904762 9.42857143,0.857142857 10.4761905,2.38095238 C11.5238095,3.9047619 10.6666667,6.47619048 8.47619048,8.0952381 C6.28571429,9.71428571 3.61904762,9.71428571 2.47619048,8.0952381 Z" id="Path" fill="#64BBE9"></path>
                        <path d="M2.47619048,8.0952381 C1.33333333,6.57142857 2.28571429,4 4.47619048,2.47619048 C6.66666667,0.952380952 9.33333333,0.952380952 10.4761905,2.47619048 C11.6190476,4 10.6666667,6.57142857 8.47619048,8.0952381 C6.28571429,9.61904762 3.61904762,9.61904762 2.47619048,8.0952381 Z" id="Path" fill="#65BBEA"></path>
                        <path d="M2.57142857,8.0952381 C1.52380952,6.57142857 2.38095238,4 4.57142857,2.47619048 C6.76190476,0.952380952 9.42857143,0.952380952 10.5714286,2.47619048 C11.7142857,4 10.7619048,6.57142857 8.57142857,8.0952381 C6.38095238,9.61904762 3.61904762,9.61904762 2.57142857,8.0952381 Z" id="Path" fill="#67BCEA"></path>
                        <path d="M2.57142857,8.0952381 C1.52380952,6.57142857 2.38095238,4.0952381 4.57142857,2.47619048 C6.76190476,0.857142857 9.42857143,0.952380952 10.4761905,2.47619048 C11.5238095,4 10.6666667,6.47619048 8.47619048,8.0952381 C6.28571429,9.71428571 3.61904762,9.61904762 2.57142857,8.0952381 Z" id="Path" fill="#69BCEA"></path>
                        <path d="M2.66666667,8 C1.61904762,6.47619048 2.47619048,4 4.66666667,2.47619048 C6.85714286,0.952380952 9.42857143,0.952380952 10.4761905,2.47619048 C11.5238095,4 10.6666667,6.47619048 8.47619048,8 C6.28571429,9.52380952 3.71428571,9.52380952 2.66666667,8 Z" id="Path" fill="#6ABCEA"></path>
                        <path d="M2.66666667,8 C1.61904762,6.47619048 2.47619048,4 4.66666667,2.47619048 C6.85714286,0.952380952 9.42857143,0.952380952 10.4761905,2.47619048 C11.5238095,4 10.6666667,6.47619048 8.47619048,8 C6.28571429,9.52380952 3.71428571,9.52380952 2.66666667,8 Z" id="Path" fill="#6CBDEA"></path>
                        <path d="M2.66666667,8 C1.61904762,6.47619048 2.47619048,4.0952381 4.57142857,2.57142857 C6.66666667,1.04761905 9.23809524,1.04761905 10.3809524,2.57142857 C11.5238095,4.0952381 10.5714286,6.47619048 8.47619048,8 C6.38095238,9.52380952 3.71428571,9.52380952 2.66666667,8 Z" id="Path" fill="#6DBDEA"></path>
                        <path d="M2.66666667,8 C1.61904762,6.47619048 2.47619048,4.0952381 4.57142857,2.57142857 C6.66666667,1.04761905 9.23809524,1.14285714 10.2857143,2.57142857 C11.3333333,4 10.4761905,6.47619048 8.38095238,8 C6.28571429,9.52380952 3.71428571,9.42857143 2.66666667,8 Z" id="Path" fill="#6FBDEA"></path>
                        <path d="M2.66666667,7.9047619 C1.61904762,6.38095238 2.47619048,4 4.57142857,2.57142857 C6.66666667,1.14285714 9.23809524,1.14285714 10.2857143,2.57142857 C11.3333333,4 10.4761905,6.47619048 8.38095238,7.9047619 C6.28571429,9.33333333 3.71428571,9.42857143 2.66666667,7.9047619 Z" id="Path" fill="#70BEEB"></path>
                        <path d="M2.76190476,7.9047619 C1.71428571,6.38095238 2.57142857,4.0952381 4.66666667,2.57142857 C6.76190476,1.04761905 9.33333333,1.14285714 10.2857143,2.57142857 C11.2380952,4 10.4761905,6.38095238 8.38095238,7.9047619 C6.28571429,9.42857143 3.80952381,9.42857143 2.76190476,7.9047619 Z" id="Path" fill="#71BFEB"></path>
                        <path d="M2.76190476,7.9047619 C1.71428571,6.47619048 2.57142857,4.0952381 4.66666667,2.66666667 C6.76190476,1.23809524 9.23809524,1.23809524 10.2857143,2.66666667 C11.3333333,4.0952381 10.4761905,6.47619048 8.38095238,7.9047619 C6.28571429,9.33333333 3.80952381,9.33333333 2.76190476,7.9047619 Z" id="Path" fill="#71BFEB"></path>
                        <path d="M2.76190476,7.9047619 C1.71428571,6.47619048 2.57142857,4.0952381 4.66666667,2.66666667 C6.76190476,1.23809524 9.23809524,1.23809524 10.1904762,2.66666667 C11.1428571,4.0952381 10.3809524,6.47619048 8.28571429,7.9047619 C6.19047619,9.33333333 3.80952381,9.33333333 2.76190476,7.9047619 Z" id="Path" fill="#73BFEB"></path>
                        <path d="M2.85714286,7.80952381 C1.80952381,6.38095238 2.66666667,4.0952381 4.66666667,2.66666667 C6.66666667,1.23809524 9.14285714,1.23809524 10.1904762,2.66666667 C11.2380952,4.0952381 10.3809524,6.38095238 8.38095238,7.80952381 C6.38095238,9.23809524 3.80952381,9.33333333 2.85714286,7.80952381 Z" id="Path" fill="#74C0EB"></path>
                        <path d="M2.85714286,7.80952381 C1.9047619,6.38095238 2.66666667,4.0952381 4.66666667,2.66666667 C6.66666667,1.23809524 9.14285714,1.23809524 10.0952381,2.66666667 C11.047619,4.0952381 10.2857143,6.38095238 8.28571429,7.80952381 C6.28571429,9.23809524 3.9047619,9.23809524 2.85714286,7.80952381 Z" id="Path" fill="#76C0EB"></path>
                        <path d="M2.95238095,7.80952381 C2,6.38095238 2.76190476,4.0952381 4.76190476,2.76190476 C6.76190476,1.42857143 9.14285714,1.33333333 10.1904762,2.76190476 C11.2380952,4.19047619 10.3809524,6.47619048 8.38095238,7.80952381 C6.38095238,9.14285714 3.9047619,9.23809524 2.95238095,7.80952381 Z" id="Path" fill="#77C0EB"></path>
                        <path d="M2.95238095,7.80952381 C2,6.38095238 2.76190476,4.19047619 4.76190476,2.76190476 C6.76190476,1.33333333 9.14285714,1.42857143 10.0952381,2.76190476 C11.047619,4.0952381 10.2857143,6.47619048 8.38095238,7.80952381 C6.47619048,9.14285714 3.9047619,9.14285714 2.95238095,7.80952381 Z" id="Path" fill="#78C1EC"></path>
                        <path d="M2.95238095,7.71428571 C2,6.28571429 2.76190476,4.0952381 4.76190476,2.76190476 C6.76190476,1.42857143 9.14285714,1.42857143 10.0952381,2.76190476 C11.047619,4.0952381 10.2857143,6.38095238 8.28571429,7.71428571 C6.28571429,9.04761905 3.9047619,9.14285714 2.95238095,7.71428571 Z" id="Path" fill="#7AC2EC"></path>
                        <path d="M2.95238095,7.71428571 C2,6.38095238 2.76190476,4.0952381 4.76190476,2.76190476 C6.76190476,1.42857143 9.04761905,1.42857143 10,2.76190476 C10.952381,4.0952381 10.1904762,6.38095238 8.19047619,7.71428571 C6.19047619,9.04761905 4,9.14285714 2.95238095,7.71428571 Z" id="Path" fill="#7BC2EC"></path>
                        <path d="M3.04761905,7.71428571 C2.0952381,6.38095238 2.85714286,4.19047619 4.76190476,2.85714286 C6.66666667,1.52380952 9.04761905,1.52380952 10,2.85714286 C10.952381,4.19047619 10.1904762,6.38095238 8.28571429,7.80952381 C6.38095238,9.23809524 4,9.04761905 3.04761905,7.71428571 Z" id="Path" fill="#7CC2EC"></path>
                        <path d="M3.04761905,7.71428571 C2.0952381,6.38095238 2.85714286,4.19047619 4.76190476,2.85714286 C6.66666667,1.52380952 8.95238095,1.52380952 9.9047619,2.85714286 C10.8571429,4.19047619 10.0952381,6.38095238 8.19047619,7.71428571 C6.28571429,9.04761905 4,9.04761905 3.04761905,7.71428571 Z" id="Path" fill="#7EC3EC"></path>
                        <path d="M3.04761905,7.71428571 C2.0952381,6.38095238 2.85714286,4.19047619 4.76190476,2.85714286 C6.66666667,1.52380952 8.95238095,1.52380952 9.9047619,2.85714286 C10.8571429,4.19047619 10.0952381,6.38095238 8.19047619,7.71428571 C6.28571429,9.04761905 4,9.04761905 3.04761905,7.71428571 Z" id="Path" fill="#7FC3EC"></path>
                        <path d="M3.14285714,7.61904762 C2.19047619,6.28571429 2.95238095,4.19047619 4.85714286,2.85714286 C6.76190476,1.52380952 9.04761905,1.52380952 9.9047619,2.85714286 C10.7619048,4.19047619 10.0952381,6.28571429 8.19047619,7.61904762 C6.28571429,8.95238095 4.0952381,8.95238095 3.14285714,7.61904762 Z" id="Path" fill="#80C4EC"></path>
                        <path d="M3.14285714,7.61904762 C2.19047619,6.28571429 2.95238095,4.19047619 4.85714286,2.85714286 C6.76190476,1.52380952 8.95238095,1.52380952 9.9047619,2.85714286 C10.8571429,4.19047619 10.0952381,6.28571429 8.19047619,7.61904762 C6.28571429,8.95238095 4.0952381,8.95238095 3.14285714,7.61904762 Z" id="Path" fill="#81C5ED"></path>
                        <path d="M3.23809524,7.61904762 C2.28571429,6.28571429 3.04761905,4.19047619 4.95238095,2.95238095 C6.85714286,1.71428571 9.04761905,1.71428571 9.9047619,2.95238095 C10.7619048,4.19047619 10.0952381,6.38095238 8.19047619,7.61904762 C6.28571429,8.85714286 4.0952381,8.95238095 3.23809524,7.61904762 Z" id="Path" fill="#82C5ED"></path>
                        <path d="M3.23809524,7.61904762 C2.28571429,6.28571429 3.04761905,4.28571429 4.85714286,2.95238095 C6.66666667,1.61904762 8.85714286,1.71428571 9.80952381,2.95238095 C10.7619048,4.19047619 10,6.28571429 8.19047619,7.61904762 C6.38095238,8.95238095 4.0952381,8.85714286 3.23809524,7.61904762 Z" id="Path" fill="#83C5ED"></path>
                        <path d="M3.23809524,7.52380952 C2.38095238,6.28571429 3.04761905,4.19047619 4.85714286,2.95238095 C6.66666667,1.71428571 8.85714286,1.71428571 9.71428571,2.95238095 C10.5714286,4.19047619 9.9047619,6.28571429 8.0952381,7.52380952 C6.28571429,8.76190476 4.19047619,8.85714286 3.23809524,7.52380952 Z" id="Path" fill="#84C6ED"></path>
                        <path d="M3.23809524,7.52380952 C2.38095238,6.28571429 3.04761905,4.19047619 4.85714286,2.95238095 C6.66666667,1.71428571 8.76190476,1.71428571 9.71428571,2.95238095 C10.6666667,4.19047619 9.9047619,6.28571429 8.0952381,7.52380952 C6.28571429,8.76190476 4.19047619,8.76190476 3.23809524,7.52380952 Z" id="Path" fill="#86C6ED"></path>
                        <path d="M3.33333333,7.52380952 C2.47619048,6.28571429 3.14285714,4.28571429 4.95238095,3.04761905 C6.76190476,1.80952381 8.85714286,1.80952381 9.71428571,3.04761905 C10.5714286,4.28571429 9.9047619,6.28571429 8.0952381,7.52380952 C6.28571429,8.76190476 4.19047619,8.76190476 3.33333333,7.52380952 Z" id="Path" fill="#87C7ED"></path>
                        <path d="M3.33333333,7.52380952 C2.47619048,6.28571429 3.14285714,4.28571429 4.95238095,3.04761905 C6.76190476,1.80952381 8.85714286,1.80952381 9.71428571,3.04761905 C10.5714286,4.28571429 9.9047619,6.28571429 8.0952381,7.52380952 C6.28571429,8.76190476 4.19047619,8.76190476 3.33333333,7.52380952 Z" id="Path" fill="#88C7ED"></path>
                        <path d="M3.33333333,7.52380952 C2.47619048,6.28571429 3.14285714,4.28571429 4.95238095,3.14285714 C6.76190476,2 8.76190476,1.9047619 9.61904762,3.14285714 C10.4761905,4.38095238 9.80952381,6.38095238 8,7.52380952 C6.19047619,8.66666667 4.19047619,8.66666667 3.33333333,7.52380952 Z" id="Path" fill="#89C8EE"></path>
                        <path d="M3.42857143,7.42857143 C2.57142857,6.19047619 3.23809524,4.28571429 5.04761905,3.04761905 C6.85714286,1.80952381 8.85714286,1.80952381 9.71428571,3.04761905 C10.5714286,4.28571429 9.9047619,6.19047619 8.19047619,7.42857143 C6.47619048,8.66666667 4.28571429,8.66666667 3.42857143,7.42857143 Z" id="Path" fill="#8BC8EE"></path>
                        <path d="M3.42857143,7.42857143 C2.57142857,6.19047619 3.23809524,4.28571429 4.95238095,3.04761905 C6.66666667,1.80952381 8.66666667,1.9047619 9.52380952,3.04761905 C10.3809524,4.19047619 9.71428571,6.19047619 8,7.42857143 C6.28571429,8.66666667 4.28571429,8.66666667 3.42857143,7.42857143 Z" id="Path" fill="#8CC9EE"></path>
                        <path d="M3.42857143,7.42857143 C2.57142857,6.28571429 3.23809524,4.28571429 4.95238095,3.14285714 C6.66666667,2 8.66666667,2 9.52380952,3.14285714 C10.3809524,4.28571429 9.71428571,6.28571429 8,7.42857143 C6.28571429,8.57142857 4.28571429,8.57142857 3.42857143,7.42857143 Z" id="Path" fill="#8DC9EE"></path>
                        <path d="M3.52380952,7.42857143 C2.66666667,6.28571429 3.42857143,4.38095238 5.04761905,3.14285714 C6.66666667,1.9047619 8.76190476,2 9.61904762,3.14285714 C10.4761905,4.28571429 9.71428571,6.19047619 8.0952381,7.42857143 C6.47619048,8.66666667 4.28571429,8.57142857 3.52380952,7.42857143 Z" id="Path" fill="#8ECAEE"></path>
                        <path d="M3.61904762,7.33333333 C2.76190476,6.19047619 3.52380952,4.28571429 5.14285714,3.14285714 C6.76190476,2 8.76190476,2 9.61904762,3.14285714 C10.4761905,4.28571429 9.80952381,6.19047619 8.0952381,7.33333333 C6.38095238,8.47619048 4.38095238,8.57142857 3.61904762,7.33333333 Z" id="Path" fill="#90CAEE"></path>
                        <path d="M3.61904762,7.33333333 C2.85714286,6.19047619 3.42857143,4.28571429 5.14285714,3.14285714 C6.85714286,2 8.76190476,2 9.52380952,3.14285714 C10.2857143,4.28571429 9.61904762,6.19047619 8,7.33333333 C6.38095238,8.47619048 4.38095238,8.47619048 3.61904762,7.33333333 Z" id="Path" fill="#91CBEE"></path>
                        <path d="M3.61904762,7.33333333 C2.85714286,6.19047619 3.52380952,4.38095238 5.04761905,3.23809524 C6.57142857,2.0952381 8.66666667,2.0952381 9.42857143,3.23809524 C10.1904762,4.38095238 9.52380952,6.19047619 7.9047619,7.33333333 C6.28571429,8.47619048 4.38095238,8.47619048 3.61904762,7.33333333 Z" id="Path" fill="#92CBEF"></path>
                        <path d="M3.61904762,7.33333333 C2.85714286,6.19047619 3.42857143,4.38095238 5.04761905,3.23809524 C6.66666667,2.0952381 8.57142857,2.0952381 9.42857143,3.23809524 C10.2857143,4.38095238 9.52380952,6.19047619 8,7.33333333 C6.47619048,8.47619048 4.38095238,8.47619048 3.61904762,7.33333333 Z" id="Path" fill="#93CCEF"></path>
                        <path d="M3.61904762,7.23809524 C2.85714286,6.0952381 3.52380952,4.28571429 5.04761905,3.23809524 C6.57142857,2.19047619 8.57142857,2.19047619 9.33333333,3.23809524 C10.0952381,4.28571429 9.42857143,6.19047619 7.9047619,7.23809524 C6.38095238,8.28571429 4.47619048,8.38095238 3.61904762,7.23809524 Z" id="Path" fill="#94CCEF"></path>
                        <path d="M3.71428571,7.23809524 C2.95238095,6.0952381 3.52380952,4.38095238 5.14285714,3.23809524 C6.76190476,2.0952381 8.57142857,2.19047619 9.33333333,3.23809524 C10.0952381,4.28571429 9.42857143,6.0952381 7.9047619,7.23809524 C6.38095238,8.38095238 4.47619048,8.38095238 3.71428571,7.23809524 Z" id="Path" fill="#96CDEF"></path>
                        <path d="M3.71428571,7.23809524 C2.95238095,6.19047619 3.61904762,4.38095238 5.14285714,3.33333333 C6.66666667,2.28571429 8.57142857,2.28571429 9.33333333,3.33333333 C10.0952381,4.38095238 9.42857143,6.19047619 7.9047619,7.23809524 C6.38095238,8.28571429 4.57142857,8.38095238 3.71428571,7.23809524 Z" id="Path" fill="#97CDEF"></path>
                        <path d="M3.71428571,7.23809524 C2.95238095,6.19047619 3.61904762,4.38095238 5.14285714,3.33333333 C6.66666667,2.28571429 8.57142857,2.28571429 9.23809524,3.33333333 C9.9047619,4.38095238 9.33333333,6.19047619 7.80952381,7.23809524 C6.28571429,8.28571429 4.57142857,8.28571429 3.71428571,7.23809524 Z" id="Path" fill="#98CEEF"></path>
                        <path d="M3.80952381,7.23809524 C3.04761905,6.19047619 3.71428571,4.47619048 5.14285714,3.33333333 C6.57142857,2.19047619 8.47619048,2.28571429 9.23809524,3.33333333 C10,4.38095238 9.33333333,6.0952381 7.9047619,7.23809524 C6.47619048,8.38095238 4.57142857,8.28571429 3.80952381,7.23809524 Z" id="Path" fill="#99CEF0"></path>
                        <path d="M3.80952381,7.14285714 C3.04761905,6.0952381 3.71428571,4.38095238 5.14285714,3.33333333 C6.57142857,2.28571429 8.47619048,2.28571429 9.14285714,3.33333333 C9.80952381,4.38095238 9.23809524,6.0952381 7.80952381,7.14285714 C6.38095238,8.19047619 4.57142857,8.19047619 3.80952381,7.14285714 Z" id="Path" fill="#9ACFF0"></path>
                        <path d="M3.80952381,7.14285714 C3.04761905,6.0952381 3.71428571,4.38095238 5.14285714,3.33333333 C6.57142857,2.28571429 8.38095238,2.28571429 9.14285714,3.33333333 C9.9047619,4.38095238 9.23809524,6.0952381 7.80952381,7.14285714 C6.38095238,8.19047619 4.57142857,8.19047619 3.80952381,7.14285714 Z" id="Path" fill="#9BCFF0"></path>
                        <path d="M3.9047619,7.14285714 C3.14285714,6.0952381 3.80952381,4.47619048 5.23809524,3.42857143 C6.66666667,2.38095238 8.47619048,2.38095238 9.23809524,3.42857143 C10,4.47619048 9.33333333,6.0952381 7.9047619,7.14285714 C6.47619048,8.19047619 4.57142857,8.19047619 3.9047619,7.14285714 Z" id="Path" fill="#9ED0F0"></path>
                        <path d="M3.9047619,7.14285714 C3.14285714,6.0952381 3.80952381,4.47619048 5.23809524,3.42857143 C6.66666667,2.38095238 8.47619048,2.38095238 9.14285714,3.42857143 C9.80952381,4.47619048 9.23809524,6.0952381 7.80952381,7.14285714 C6.38095238,8.19047619 4.66666667,8.0952381 3.9047619,7.14285714 Z" id="Path" fill="#9FD1F0"></path>
                        <path d="M3.9047619,7.04761905 C3.14285714,6 3.80952381,4.38095238 5.23809524,3.42857143 C6.66666667,2.47619048 8.38095238,2.47619048 9.14285714,3.42857143 C9.9047619,4.38095238 9.23809524,6.0952381 7.80952381,7.04761905 C6.38095238,8 4.66666667,8.0952381 3.9047619,7.04761905 Z" id="Path" fill="#A0D1F1"></path>
                        <path d="M4,7.04761905 C3.33333333,6 3.9047619,4.47619048 5.33333333,3.42857143 C6.76190476,2.38095238 8.47619048,2.47619048 9.14285714,3.42857143 C9.80952381,4.38095238 9.23809524,6 7.80952381,7.04761905 C6.38095238,8.0952381 4.66666667,8.0952381 4,7.04761905 Z" id="Path" fill="#A1D1F1"></path>
                        <path d="M4,7.04761905 C3.33333333,6.0952381 3.9047619,4.47619048 5.23809524,3.52380952 C6.57142857,2.57142857 8.28571429,2.57142857 9.04761905,3.52380952 C9.80952381,4.47619048 9.14285714,6.0952381 7.80952381,7.04761905 C6.47619048,8 4.66666667,8 4,7.04761905 Z" id="Path" fill="#A2D2F1"></path>
                        <path d="M4,7.04761905 C3.33333333,6.0952381 3.9047619,4.47619048 5.23809524,3.52380952 C6.57142857,2.57142857 8.28571429,2.57142857 8.95238095,3.52380952 C9.61904762,4.47619048 9.04761905,6.0952381 7.71428571,7.04761905 C6.38095238,8 4.66666667,8 4,7.04761905 Z" id="Path" fill="#A3D3F1"></path>
                        <path d="M4.0952381,7.04761905 C3.42857143,6.0952381 4,4.57142857 5.33333333,3.61904762 C6.66666667,2.66666667 8.38095238,2.66666667 9.04761905,3.61904762 C9.71428571,4.57142857 9.14285714,6.0952381 7.80952381,7.04761905 C6.47619048,8 4.76190476,8 4.0952381,7.04761905 Z" id="Path" fill="#A4D3F1"></path>
                        <path d="M4.0952381,6.95238095 C3.42857143,6 4,4.47619048 5.33333333,3.52380952 C6.66666667,2.57142857 8.28571429,2.57142857 8.95238095,3.52380952 C9.61904762,4.47619048 9.04761905,6 7.71428571,6.95238095 C6.38095238,7.9047619 4.76190476,7.9047619 4.0952381,6.95238095 Z" id="Path" fill="#A5D3F1"></path>
                        <path d="M4.0952381,6.95238095 C3.42857143,6 4,4.47619048 5.33333333,3.61904762 C6.66666667,2.76190476 8.28571429,2.66666667 8.95238095,3.61904762 C9.61904762,4.57142857 9.04761905,6.0952381 7.71428571,6.95238095 C6.38095238,7.80952381 4.76190476,7.9047619 4.0952381,6.95238095 Z" id="Path" fill="#A7D4F2"></path>
                        <path d="M4.19047619,6.95238095 C3.52380952,6 4.0952381,4.57142857 5.33333333,3.61904762 C6.57142857,2.66666667 8.19047619,2.76190476 8.85714286,3.61904762 C9.52380952,4.47619048 8.95238095,6 7.71428571,6.95238095 C6.47619048,7.9047619 4.76190476,7.80952381 4.19047619,6.95238095 Z" id="Path" fill="#A8D4F2"></path>
                        <path d="M4.19047619,6.95238095 C3.52380952,6 4.0952381,4.57142857 5.33333333,3.61904762 C6.57142857,2.66666667 8.19047619,2.76190476 8.85714286,3.61904762 C9.52380952,4.47619048 8.95238095,6 7.71428571,6.85714286 C6.38095238,7.80952381 4.85714286,7.80952381 4.19047619,6.95238095 Z" id="Path" fill="#A9D5F2"></path>
                        <path d="M4.19047619,6.85714286 C3.52380952,6 4.0952381,4.47619048 5.33333333,3.61904762 C6.57142857,2.76190476 8.0952381,2.76190476 8.76190476,3.61904762 C9.42857143,4.47619048 8.85714286,6 7.61904762,6.85714286 C6.38095238,7.80952381 4.85714286,7.80952381 4.19047619,6.85714286 Z" id="Path" fill="#AAD5F2"></path>
                        <path d="M4.19047619,6.85714286 C3.52380952,6 4.0952381,4.57142857 5.33333333,3.61904762 C6.57142857,2.66666667 8.0952381,2.76190476 8.76190476,3.61904762 C9.42857143,4.47619048 8.85714286,5.9047619 7.61904762,6.85714286 C6.38095238,7.80952381 4.85714286,7.71428571 4.19047619,6.85714286 Z" id="Path" fill="#ABD6F2"></path>
                        <path d="M4.28571429,6.85714286 C3.71428571,6 4.19047619,4.57142857 5.42857143,3.71428571 C6.66666667,2.85714286 8.19047619,2.85714286 8.76190476,3.71428571 C9.33333333,4.57142857 8.85714286,6 7.61904762,6.85714286 C6.38095238,7.71428571 4.85714286,7.71428571 4.28571429,6.85714286 Z" id="Path" fill="#ACD6F2"></path>
                        <path d="M4.28571429,6.85714286 C3.71428571,6 4.19047619,4.57142857 5.42857143,3.71428571 C6.66666667,2.85714286 8.0952381,2.85714286 8.76190476,3.71428571 C9.42857143,4.57142857 8.85714286,6 7.61904762,6.85714286 C6.38095238,7.71428571 4.95238095,7.71428571 4.28571429,6.85714286 Z" id="Path" fill="#ADD7F2"></path>
                        <path d="M4.38095238,6.76190476 C3.80952381,5.9047619 4.28571429,4.57142857 5.42857143,3.71428571 C6.57142857,2.85714286 8.0952381,2.85714286 8.66666667,3.71428571 C9.23809524,4.57142857 8.76190476,5.9047619 7.61904762,6.76190476 C6.47619048,7.61904762 4.95238095,7.61904762 4.38095238,6.76190476 Z" id="Path" fill="#AED7F3"></path>
                        <path d="M4.38095238,6.76190476 C3.80952381,5.9047619 4.28571429,4.57142857 5.42857143,3.71428571 C6.57142857,2.85714286 8.0952381,2.85714286 8.66666667,3.71428571 C9.23809524,4.57142857 8.76190476,5.9047619 7.61904762,6.76190476 C6.47619048,7.61904762 4.95238095,7.61904762 4.38095238,6.76190476 Z" id="Path" fill="#AFD8F3"></path>
                        <path d="M4.38095238,6.76190476 C3.80952381,5.9047619 4.28571429,4.57142857 5.52380952,3.80952381 C6.76190476,3.04761905 8.0952381,2.95238095 8.66666667,3.80952381 C9.23809524,4.66666667 8.76190476,6 7.61904762,6.76190476 C6.47619048,7.52380952 4.95238095,7.61904762 4.38095238,6.76190476 Z" id="Path" fill="#B1D8F3"></path>
                        <path d="M4.38095238,6.76190476 C3.80952381,6 4.28571429,4.66666667 5.42857143,3.80952381 C6.57142857,2.95238095 8,3.04761905 8.57142857,3.80952381 C9.14285714,4.57142857 8.66666667,5.9047619 7.52380952,6.76190476 C6.38095238,7.61904762 4.95238095,7.52380952 4.38095238,6.76190476 Z" id="Path" fill="#B2D9F3"></path>
                        <path d="M4.47619048,6.76190476 C3.9047619,6 4.38095238,4.66666667 5.52380952,3.9047619 C6.66666667,3.14285714 8,3.14285714 8.57142857,3.9047619 C9.14285714,4.66666667 8.66666667,6 7.52380952,6.76190476 C6.38095238,7.52380952 5.04761905,7.52380952 4.47619048,6.76190476 Z" id="Path" fill="#B3DAF3"></path>
                        <path d="M4.57142857,6.66666667 C4,5.9047619 4.47619048,4.57142857 5.61904762,3.80952381 C6.76190476,3.04761905 8.0952381,3.04761905 8.66666667,3.80952381 C9.23809524,4.57142857 8.76190476,5.9047619 7.61904762,6.66666667 C6.47619048,7.42857143 5.04761905,7.52380952 4.57142857,6.66666667 Z" id="Path" fill="#B4DAF4"></path>
                        <path d="M4.57142857,6.66666667 C4,5.9047619 4.47619048,4.66666667 5.61904762,3.9047619 C6.76190476,3.14285714 8.0952381,3.14285714 8.57142857,3.9047619 C9.04761905,4.66666667 8.66666667,5.9047619 7.61904762,6.66666667 C6.57142857,7.42857143 5.04761905,7.42857143 4.57142857,6.66666667 Z" id="Path" fill="#B5DBF4"></path>
                        <path d="M4.57142857,6.66666667 C4,5.9047619 4.47619048,4.66666667 5.52380952,3.9047619 C6.57142857,3.14285714 7.9047619,3.14285714 8.47619048,3.9047619 C9.04761905,4.66666667 8.57142857,5.9047619 7.52380952,6.66666667 C6.47619048,7.42857143 5.14285714,7.42857143 4.57142857,6.66666667 Z" id="Path" fill="#B6DBF4"></path>
                        <path d="M4.57142857,6.66666667 C4,5.9047619 4.47619048,4.66666667 5.52380952,3.9047619 C6.57142857,3.14285714 7.9047619,3.14285714 8.38095238,3.9047619 C8.85714286,4.66666667 8.47619048,5.9047619 7.42857143,6.57142857 C6.38095238,7.23809524 5.14285714,7.42857143 4.57142857,6.66666667 Z" id="Path" fill="#B7DBF4"></path>
                        <path d="M4.66666667,6.57142857 C4.0952381,5.80952381 4.57142857,4.66666667 5.61904762,3.9047619 C6.66666667,3.14285714 7.9047619,3.14285714 8.47619048,3.9047619 C9.04761905,4.66666667 8.57142857,5.80952381 7.52380952,6.57142857 C6.47619048,7.33333333 5.14285714,7.33333333 4.66666667,6.57142857 Z" id="Path" fill="#B8DCF4"></path>
                        <path d="M4.66666667,6.57142857 C4.19047619,5.80952381 4.57142857,4.66666667 5.61904762,3.9047619 C6.66666667,3.14285714 7.9047619,3.14285714 8.38095238,3.9047619 C8.85714286,4.66666667 8.47619048,5.80952381 7.42857143,6.57142857 C6.38095238,7.33333333 5.14285714,7.33333333 4.66666667,6.57142857 Z" id="Path" fill="#B9DDF4"></path>
                        <path d="M4.66666667,6.57142857 C4.19047619,5.80952381 4.57142857,4.66666667 5.61904762,4 C6.66666667,3.33333333 7.9047619,3.33333333 8.38095238,4 C8.85714286,4.66666667 8.47619048,5.9047619 7.42857143,6.57142857 C6.38095238,7.23809524 5.14285714,7.23809524 4.66666667,6.57142857 Z" id="Path" fill="#BADDF5"></path>
                        <path d="M4.66666667,6.57142857 C4.19047619,5.9047619 4.57142857,4.76190476 5.61904762,4 C6.66666667,3.23809524 7.80952381,3.33333333 8.28571429,4 C8.76190476,4.66666667 8.38095238,5.80952381 7.33333333,6.57142857 C6.28571429,7.33333333 5.23809524,7.23809524 4.66666667,6.57142857 Z" id="Path" fill="#BBDDF5"></path>
                        <path d="M4.76190476,6.47619048 C4.28571429,5.80952381 4.66666667,4.66666667 5.61904762,4 C6.57142857,3.33333333 7.80952381,3.33333333 8.28571429,4 C8.76190476,4.66666667 8.38095238,5.80952381 7.42857143,6.47619048 C6.47619048,7.14285714 5.23809524,7.23809524 4.76190476,6.47619048 Z" id="Path" fill="#BCDEF5"></path>
                        <path d="M4.76190476,6.47619048 C4.28571429,5.80952381 4.66666667,4.66666667 5.61904762,4 C6.57142857,3.33333333 7.71428571,3.33333333 8.19047619,4 C8.66666667,4.66666667 8.28571429,5.80952381 7.33333333,6.47619048 C6.38095238,7.14285714 5.23809524,7.14285714 4.76190476,6.47619048 Z" id="Path" fill="#BDDEF5"></path>
                        <path d="M4.76190476,6.47619048 C4.28571429,5.80952381 4.66666667,4.76190476 5.61904762,4.0952381 C6.57142857,3.42857143 7.71428571,3.42857143 8.19047619,4.0952381 C8.66666667,4.76190476 8.28571429,5.80952381 7.33333333,6.47619048 C6.38095238,7.14285714 5.23809524,7.14285714 4.76190476,6.47619048 Z" id="Path" fill="#BFDFF5"></path>
                        <path d="M4.85714286,6.47619048 C4.38095238,5.80952381 4.76190476,4.76190476 5.71428571,4.0952381 C6.66666667,3.42857143 7.80952381,3.42857143 8.19047619,4.0952381 C8.57142857,4.76190476 8.28571429,5.80952381 7.33333333,6.47619048 C6.66666667,7.14285714 5.52380952,7.14285714 4.85714286,6.47619048 Z" id="Path" fill="#C0DFF5"></path>
                        <path d="M4.85714286,6.47619048 C4.38095238,5.80952381 4.76190476,4.76190476 5.71428571,4.0952381 C6.38095238,3.42857143 7.52380952,3.42857143 8.19047619,4.0952381 C8.66666667,4.76190476 8.28571429,5.80952381 7.33333333,6.38095238 C6.38095238,6.95238095 5.33333333,7.04761905 4.85714286,6.47619048 Z" id="Path" fill="#C1E0F6"></path>
                        <path d="M4.85714286,6.38095238 C4.47619048,5.52380952 4.85714286,4.57142857 5.71428571,4.0952381 C6.38095238,3.42857143 7.42857143,3.42857143 8.19047619,4.0952381 C8.66666667,4.76190476 8.28571429,5.71428571 7.33333333,6.38095238 C6.66666667,7.04761905 5.61904762,7.04761905 4.85714286,6.38095238 Z" id="Path" fill="#C2E1F6"></path>
                        <path d="M4.95238095,6.38095238 C4.57142857,5.52380952 4.95238095,4.57142857 5.71428571,4.19047619 C6.38095238,3.52380952 7.42857143,3.52380952 8.0952381,4.19047619 C8.57142857,4.76190476 8.19047619,5.80952381 7.33333333,6.47619048 C6.66666667,7.04761905 5.61904762,7.04761905 4.95238095,6.38095238 Z" id="Path" fill="#C3E1F6"></path>
                        <path d="M4.95238095,6.38095238 C4.57142857,5.80952381 4.85714286,4.76190476 5.71428571,4.19047619 C6.38095238,3.61904762 7.42857143,3.61904762 8,4.19047619 C8.38095238,4.76190476 8.0952381,5.80952381 7.23809524,6.38095238 C6.66666667,6.95238095 5.61904762,6.95238095 4.95238095,6.38095238 Z" id="Path" fill="#C4E2F6"></path>
                        <path d="M4.95238095,6.38095238 C4.57142857,5.71428571 4.95238095,4.76190476 5.71428571,4.19047619 C6.38095238,3.61904762 7.33333333,3.61904762 8,4.19047619 C8.38095238,4.76190476 8.0952381,5.71428571 7.23809524,6.28571429 C6.66666667,6.95238095 5.61904762,6.95238095 4.95238095,6.38095238 Z" id="Path" fill="#C5E2F6"></path>
                        <path d="M5.04761905,6.28571429 C4.66666667,5.71428571 4.95238095,4.76190476 5.80952381,4.19047619 C6.47619048,3.61904762 7.42857143,3.61904762 8,4.19047619 C8.38095238,4.76190476 8.0952381,5.71428571 7.23809524,6.28571429 C6.66666667,6.95238095 5.61904762,6.95238095 5.04761905,6.28571429 Z" id="Path" fill="#C6E2F6"></path>
                        <path d="M5.04761905,6.28571429 C4.66666667,5.71428571 4.95238095,4.76190476 5.80952381,4.19047619 C6.38095238,3.61904762 7.33333333,3.61904762 8,4.19047619 C8.38095238,4.76190476 8.0952381,5.71428571 7.23809524,6.28571429 C6.66666667,6.85714286 5.61904762,6.85714286 5.04761905,6.28571429 Z" id="Path" fill="#C7E3F6"></path>
                        <path d="M5.04761905,6.28571429 C4.66666667,5.71428571 4.95238095,4.85714286 5.80952381,4.28571429 C6.38095238,3.71428571 7.33333333,3.71428571 7.9047619,4.28571429 C8.28571429,4.85714286 8,5.71428571 7.14285714,6.28571429 C6.66666667,6.85714286 5.71428571,6.85714286 5.04761905,6.28571429 Z" id="Path" fill="#C8E4F7"></path>
                        <path d="M5.14285714,6.28571429 C4.76190476,5.71428571 5.04761905,4.85714286 5.80952381,4.28571429 C6.38095238,3.71428571 7.33333333,3.71428571 7.9047619,4.28571429 C8.28571429,4.85714286 8,5.71428571 7.23809524,6.28571429 C6.66666667,6.76190476 5.71428571,6.76190476 5.14285714,6.28571429 Z" id="Path" fill="#CAE4F7"></path>
                        <path d="M5.14285714,6.28571429 C4.85714286,5.52380952 5.14285714,4.76190476 5.80952381,4.38095238 C6.38095238,3.80952381 7.23809524,3.80952381 7.9047619,4.38095238 C8.28571429,4.95238095 8,5.80952381 7.23809524,6.28571429 C6.57142857,6.76190476 5.71428571,6.76190476 5.14285714,6.28571429 Z" id="Path" fill="#CBE5F7"></path>
                        <path d="M5.14285714,6.19047619 C4.76190476,5.61904762 5.04761905,4.85714286 5.80952381,4.28571429 C6.38095238,3.71428571 7.23809524,3.71428571 7.80952381,4.28571429 C8.19047619,4.85714286 7.9047619,5.61904762 7.14285714,6.19047619 C6.57142857,6.76190476 5.71428571,6.76190476 5.14285714,6.19047619 Z" id="Path" fill="#CCE5F7"></path>
                        <path d="M5.23809524,6.19047619 C4.85714286,5.71428571 5.14285714,4.85714286 5.9047619,4.38095238 C6.47619048,3.9047619 7.33333333,3.9047619 7.9047619,4.38095238 C8.28571429,4.85714286 8,5.71428571 7.23809524,6.19047619 C6.47619048,6.66666667 5.52380952,6.66666667 5.23809524,6.19047619 Z" id="Path" fill="#CDE6F7"></path>
                        <path d="M5.23809524,6.19047619 C4.85714286,5.71428571 5.14285714,4.85714286 5.9047619,4.38095238 C6.47619048,3.9047619 7.23809524,3.9047619 7.80952381,4.38095238 C8.19047619,4.85714286 7.9047619,5.71428571 7.14285714,6.19047619 C6.57142857,6.66666667 5.80952381,6.66666667 5.23809524,6.19047619 Z" id="Path" fill="#CDE7F8"></path>
                        <path d="M5.23809524,6.0952381 C4.85714286,5.61904762 5.14285714,4.85714286 5.9047619,4.38095238 C6.47619048,3.9047619 7.23809524,3.9047619 7.80952381,4.38095238 C8.0952381,5.04761905 7.80952381,5.80952381 7.14285714,6.0952381 C6.66666667,6.66666667 5.80952381,6.66666667 5.23809524,6.0952381 Z" id="Path" fill="#CEE7F8"></path>
                        <path d="M5.33333333,6.0952381 C5.04761905,5.42857143 5.33333333,4.66666667 5.9047619,4.38095238 C6.38095238,3.9047619 7.23809524,3.9047619 7.71428571,4.38095238 C8.0952381,4.85714286 7.80952381,5.61904762 7.14285714,6.0952381 C6.57142857,6.57142857 5.80952381,6.57142857 5.33333333,6.0952381 Z" id="Path" fill="#CFE7F8"></path>
                        <path d="M5.33333333,6.0952381 C5.04761905,5.42857143 5.33333333,4.76190476 5.9047619,4.38095238 C6.38095238,3.9047619 7.14285714,3.9047619 7.71428571,4.38095238 C8,4.85714286 7.80952381,5.61904762 7.14285714,6.0952381 C6.57142857,6.57142857 5.80952381,6.57142857 5.33333333,6.0952381 Z" id="Path" fill="#D0E8F8"></path>
                        <path d="M5.33333333,6.0952381 C5.04761905,5.61904762 5.23809524,4.95238095 5.9047619,4.47619048 C6.38095238,4 7.14285714,4 7.61904762,4.47619048 C7.9047619,5.04761905 7.61904762,5.80952381 7.04761905,6.0952381 C6.57142857,6.57142857 5.80952381,6.57142857 5.33333333,6.0952381 Z" id="Path" fill="#D1E8F8"></path>
                        <path d="M5.42857143,6.0952381 C5.14285714,5.61904762 5.33333333,4.95238095 6,4.57142857 C6.66666667,4.19047619 7.33333333,4.0952381 7.71428571,4.57142857 C8.0952381,5.04761905 7.80952381,5.71428571 7.14285714,6.0952381 C6.57142857,6.47619048 5.9047619,6.47619048 5.42857143,6.0952381 Z" id="Path" fill="#D3E9F8"></path>
                        <path d="M5.52380952,6 C5.23809524,5.61904762 5.42857143,4.85714286 6.0952381,4.47619048 C6.57142857,4 7.23809524,4 7.71428571,4.47619048 C8,5.04761905 7.71428571,5.71428571 7.14285714,6 C6.66666667,6.47619048 5.9047619,6.47619048 5.52380952,6 Z" id="Path" fill="#D4E9F8"></path>
                        <path d="M5.52380952,6 C5.23809524,5.61904762 5.42857143,4.95238095 6.0952381,4.47619048 C6.57142857,4.0952381 7.23809524,4.0952381 7.71428571,4.47619048 C8,4.85714286 7.80952381,5.52380952 7.14285714,6 C6.57142857,6.47619048 5.9047619,6.47619048 5.52380952,6 Z" id="Path" fill="#D5EAF9"></path>
                        <path d="M5.52380952,6 C5.23809524,5.61904762 5.52380952,4.95238095 6,4.57142857 C6.47619048,4.19047619 7.14285714,4.19047619 7.52380952,4.57142857 C7.80952381,4.95238095 7.61904762,5.61904762 6.95238095,6 C6.57142857,6.38095238 5.9047619,6.38095238 5.52380952,6 Z" id="Path" fill="#D6EBF9"></path>
                        <path d="M5.52380952,6 C5.33333333,5.42857143 5.52380952,4.85714286 6,4.57142857 C6.38095238,4.19047619 7.04761905,4.19047619 7.52380952,4.57142857 C7.80952381,4.95238095 7.52380952,5.61904762 7.04761905,6 C6.57142857,6.38095238 5.9047619,6.38095238 5.52380952,6 Z" id="Path" fill="#D7EBF9"></path>
                        <path d="M5.52380952,5.9047619 C5.23809524,5.52380952 5.42857143,4.95238095 6,4.57142857 C6.38095238,4.19047619 7.04761905,4.19047619 7.42857143,4.57142857 C7.71428571,4.95238095 7.52380952,5.52380952 6.95238095,5.9047619 C6.57142857,6.38095238 6,6.38095238 5.52380952,5.9047619 Z" id="Path" fill="#D8EBF9"></path>
                        <path d="M5.61904762,5.9047619 C5.42857143,5.42857143 5.61904762,4.85714286 6.0952381,4.57142857 C6.47619048,4.19047619 7.14285714,4.19047619 7.52380952,4.57142857 C7.80952381,4.95238095 7.52380952,5.52380952 7.04761905,5.9047619 C6.57142857,6.28571429 5.80952381,6.28571429 5.61904762,5.9047619 Z" id="Path" fill="#D9ECF9"></path>
                        <path d="M5.61904762,5.9047619 C5.33333333,5.52380952 5.61904762,4.95238095 6.0952381,4.66666667 C6.47619048,4.28571429 7.04761905,4.28571429 7.42857143,4.66666667 C7.42857143,4.66666667 7.42857143,4.66666667 7.42857143,4.66666667 C7.71428571,5.04761905 7.42857143,5.61904762 6.95238095,5.9047619 C6.57142857,6.28571429 6,6.28571429 5.61904762,5.9047619 C5.61904762,5.9047619 5.61904762,5.9047619 5.61904762,5.9047619 Z" id="Path" fill="#DAECF9"></path>
                        <path d="M5.61904762,5.9047619 C5.42857143,5.52380952 5.61904762,5.04761905 6.0952381,4.66666667 C6.47619048,4.28571429 7.04761905,4.28571429 7.42857143,4.66666667 C7.61904762,5.04761905 7.52380952,5.52380952 6.95238095,5.9047619 C6.57142857,6.19047619 6,6.19047619 5.61904762,5.9047619 Z" id="Path" fill="#DBEDFA"></path>
                        <path d="M5.71428571,5.9047619 C5.52380952,5.52380952 5.61904762,5.04761905 6.0952381,4.76190476 C6.47619048,4.47619048 6.95238095,4.47619048 7.33333333,4.76190476 C7.52380952,5.04761905 7.33333333,5.61904762 6.95238095,5.9047619 C6.57142857,6.19047619 6,6.19047619 5.71428571,5.9047619 Z" id="Path" fill="#DCEEFA"></path>
                        <path d="M5.71428571,5.80952381 C5.52380952,5.52380952 5.71428571,4.95238095 6.0952381,4.66666667 C6.47619048,4.38095238 6.95238095,4.38095238 7.33333333,4.66666667 C7.52380952,5.14285714 7.33333333,5.61904762 6.95238095,5.80952381 C6.47619048,6.19047619 5.9047619,6.19047619 5.71428571,5.80952381 Z" id="Path" fill="#DDEEFA"></path>
                        <path d="M5.71428571,5.80952381 C5.52380952,5.52380952 5.71428571,5.04761905 6.0952381,4.76190476 C6.38095238,4.47619048 6.95238095,4.47619048 7.23809524,4.76190476 C7.42857143,5.04761905 7.23809524,5.52380952 6.85714286,5.80952381 C6.57142857,6.0952381 6.0952381,6.0952381 5.71428571,5.80952381 Z" id="Path" fill="#DEEEFA"></path>
                        <path d="M5.80952381,5.80952381 C5.61904762,5.52380952 5.80952381,5.04761905 6.19047619,4.76190476 C6.47619048,4.47619048 6.95238095,4.47619048 7.33333333,4.76190476 C7.52380952,5.04761905 7.33333333,5.52380952 6.95238095,5.80952381 C6.57142857,6.0952381 6.0952381,6.0952381 5.80952381,5.80952381 Z" id="Path" fill="#DFEFFA"></path>
                        <path d="M5.80952381,5.80952381 C5.61904762,5.52380952 5.80952381,5.04761905 6.19047619,4.76190476 C6.47619048,4.47619048 6.95238095,4.47619048 7.23809524,4.76190476 C7.42857143,5.04761905 7.23809524,5.52380952 6.85714286,5.80952381 C6.57142857,6.0952381 6.0952381,6.0952381 5.80952381,5.80952381 Z" id="Path" fill="#E0EFFA"></path>
                        <path d="M5.80952381,5.71428571 C5.61904762,5.42857143 5.80952381,5.04761905 6.19047619,4.76190476 C6.47619048,4.47619048 6.95238095,4.47619048 7.23809524,4.76190476 C7.42857143,5.14285714 7.23809524,5.52380952 6.85714286,5.71428571 C6.57142857,6 6.0952381,6 5.80952381,5.71428571 Z" id="Path" fill="#E1F0FA"></path>
                        <path d="M5.80952381,5.71428571 C5.61904762,5.33333333 5.80952381,4.95238095 6.19047619,4.76190476 C6.57142857,4.47619048 6.95238095,4.47619048 7.14285714,4.76190476 C7.33333333,5.14285714 7.14285714,5.52380952 6.85714286,5.71428571 C6.85714286,5.71428571 6.85714286,5.71428571 6.85714286,5.71428571 C6.57142857,6 6.0952381,6 5.80952381,5.71428571 Z" id="Path" fill="#E2F1FB"></path>
                        <path d="M5.9047619,5.71428571 C5.71428571,5.42857143 5.9047619,5.04761905 6.19047619,4.85714286 C6.47619048,4.57142857 6.85714286,4.57142857 7.14285714,4.85714286 C7.14285714,4.85714286 7.14285714,4.85714286 7.14285714,4.85714286 C7.33333333,5.14285714 7.14285714,5.52380952 6.85714286,5.71428571 C6.57142857,5.9047619 6.0952381,5.9047619 5.9047619,5.71428571 Z" id="Path" fill="#E4F1FB"></path>
                        <path d="M5.9047619,5.71428571 C5.71428571,5.52380952 5.9047619,5.14285714 6.19047619,4.85714286 C6.47619048,4.66666667 6.85714286,4.66666667 7.04761905,4.85714286 C7.14285714,5.14285714 7.04761905,5.52380952 6.76190476,5.71428571 C6.47619048,5.9047619 6.0952381,5.9047619 5.9047619,5.71428571 Z" id="Path" fill="#E4F2FB"></path>
                        <path d="M5.9047619,5.71428571 C5.71428571,5.52380952 5.9047619,5.14285714 6.19047619,4.95238095 C6.38095238,4.76190476 6.76190476,4.76190476 7.04761905,4.95238095 C7.23809524,5.14285714 7.04761905,5.52380952 6.76190476,5.71428571 C6.57142857,5.9047619 6.19047619,5.9047619 5.9047619,5.71428571 Z" id="Path" fill="#E5F2FB"></path>
                        <path d="M6,5.61904762 C5.9047619,5.33333333 6,5.04761905 6.28571429,4.85714286 C6.57142857,4.66666667 6.95238095,4.66666667 7.04761905,4.85714286 C7.14285714,5.04761905 7.04761905,5.42857143 6.76190476,5.61904762 C6.57142857,5.9047619 6.19047619,5.9047619 6,5.61904762 Z" id="Path" fill="#E6F2FB"></path>
                        <path d="M6,5.61904762 C5.9047619,5.42857143 6,5.14285714 6.28571429,4.95238095 C6.47619048,4.76190476 6.85714286,4.76190476 7.04761905,4.95238095 C7.14285714,5.23809524 7.04761905,5.52380952 6.76190476,5.61904762 C6.47619048,5.80952381 6.19047619,5.80952381 6,5.61904762 Z" id="Path" fill="#E7F3FB"></path>
                        <path d="M6.0952381,5.61904762 C6,5.42857143 6.0952381,5.14285714 6.28571429,4.95238095 C6.47619048,4.76190476 6.76190476,4.76190476 6.95238095,4.95238095 C7.04761905,5.14285714 6.95238095,5.42857143 6.76190476,5.61904762 C6.57142857,5.80952381 6.28571429,5.80952381 6.0952381,5.61904762 Z" id="Path" fill="#E8F4FB"></path>
                        <path d="M6.0952381,5.61904762 C6,5.33333333 6.19047619,5.04761905 6.47619048,4.95238095 C6.66666667,4.85714286 6.85714286,4.95238095 6.95238095,5.04761905 C7.04761905,5.23809524 6.95238095,5.52380952 6.76190476,5.61904762 C6.47619048,5.71428571 6.19047619,5.71428571 6.0952381,5.61904762 Z" id="Path" fill="#E9F4FB"></path>
                        <path d="M6.0952381,5.52380952 C6,5.33333333 6.0952381,5.04761905 6.28571429,4.95238095 C6.47619048,4.76190476 6.76190476,4.76190476 6.85714286,4.95238095 C6.95238095,5.14285714 6.85714286,5.42857143 6.66666667,5.52380952 C6.57142857,5.71428571 6.28571429,5.71428571 6.0952381,5.52380952 Z" id="Path" fill="#EBF5FC"></path>
                        <path d="M6.0952381,5.52380952 C6,5.42857143 6.0952381,5.14285714 6.28571429,4.95238095 C6.47619048,4.76190476 6.66666667,4.76190476 6.85714286,4.95238095 C6.95238095,5.14285714 6.85714286,5.42857143 6.66666667,5.52380952 C6.47619048,5.71428571 6.28571429,5.71428571 6.0952381,5.52380952 Z" id="Path" fill="#EBF5FC"></path>
                        <path d="M6.19047619,5.52380952 C6.0952381,5.42857143 6.19047619,5.14285714 6.38095238,5.04761905 C6.57142857,4.95238095 6.76190476,4.95238095 6.85714286,5.04761905 C6.95238095,5.14285714 6.85714286,5.42857143 6.66666667,5.52380952 C6.57142857,5.61904762 6.28571429,5.61904762 6.19047619,5.52380952 Z" id="Path" fill="#ECF5FC"></path>
                        <path d="M6.19047619,5.52380952 C6.0952381,5.42857143 6.19047619,5.23809524 6.38095238,5.04761905 C6.57142857,4.85714286 6.76190476,4.95238095 6.85714286,5.04761905 C6.95238095,5.14285714 6.85714286,5.33333333 6.66666667,5.52380952 C6.57142857,5.61904762 6.28571429,5.61904762 6.19047619,5.52380952 Z" id="Path" fill="#EDF6FC"></path>
                        <path d="M6.19047619,5.52380952 C6.0952381,5.42857143 6.19047619,5.23809524 6.28571429,5.14285714 C6.38095238,5.04761905 6.57142857,5.04761905 6.66666667,5.14285714 C6.76190476,5.23809524 6.66666667,5.42857143 6.57142857,5.52380952 C6.57142857,5.61904762 6.38095238,5.61904762 6.19047619,5.52380952 Z" id="Path" fill="#EEF7FC"></path>
                        <path d="M6.28571429,5.42857143 C6.19047619,5.33333333 6.28571429,5.14285714 6.38095238,5.04761905 C6.47619048,4.95238095 6.57142857,4.95238095 6.66666667,4.95238095 C6.76190476,5.04761905 6.76190476,5.14285714 6.76190476,5.23809524 C6.76190476,5.23809524 6.66666667,5.33333333 6.66666667,5.33333333 C6.47619048,5.52380952 6.28571429,5.52380952 6.28571429,5.42857143 Z" id="Path" fill="#EFF7FC"></path>
                        <path d="M6.28571429,5.42857143 C6.19047619,5.33333333 6.28571429,5.14285714 6.38095238,5.14285714 C6.47619048,5.04761905 6.66666667,5.04761905 6.76190476,5.14285714 C6.85714286,5.23809524 6.76190476,5.33333333 6.66666667,5.42857143 C6.57142857,5.52380952 6.38095238,5.52380952 6.28571429,5.42857143 Z" id="Path" fill="#F0F7FC"></path>
                        <path d="M6.28571429,5.42857143 C6.28571429,5.33333333 6.28571429,5.23809524 6.38095238,5.14285714 C6.47619048,5.04761905 6.57142857,5.04761905 6.66666667,5.14285714 C6.76190476,5.23809524 6.66666667,5.33333333 6.57142857,5.42857143 C6.57142857,5.52380952 6.38095238,5.52380952 6.28571429,5.42857143 Z" id="Path" fill="#F1F8FD"></path>
                        <path d="M6.38095238,5.33333333 C6.38095238,5.23809524 6.38095238,5.14285714 6.47619048,5.14285714 C6.57142857,5.14285714 6.66666667,5.04761905 6.66666667,5.14285714 C6.66666667,5.23809524 6.66666667,5.33333333 6.57142857,5.33333333 C6.47619048,5.33333333 6.47619048,5.42857143 6.38095238,5.33333333 Z" id="Path" fill="#F2F8FD"></path>
                        <path d="M6.47619048,5.33333333 C6.47619048,5.23809524 6.47619048,5.23809524 6.57142857,5.14285714 C6.66666667,5.04761905 6.76190476,5.14285714 6.76190476,5.14285714 C6.76190476,5.14285714 6.76190476,5.23809524 6.66666667,5.33333333 C6.57142857,5.42857143 6.47619048,5.42857143 6.47619048,5.33333333 Z" id="Path" fill="#F3F9FD"></path>
                        <path d="M6.47619048,5.33333333 C6.47619048,5.33333333 6.47619048,5.23809524 6.47619048,5.23809524 C6.47619048,5.23809524 6.57142857,5.23809524 6.57142857,5.23809524 C6.57142857,5.23809524 6.57142857,5.33333333 6.57142857,5.33333333 C6.47619048,5.33333333 6.47619048,5.33333333 6.47619048,5.33333333 Z" id="Path" fill="#F4F9FD"></path>
                        <path d="M6.47619048,5.33333333 C6.47619048,5.33333333 6.47619048,5.23809524 6.47619048,5.33333333 C6.47619048,5.23809524 6.47619048,5.23809524 6.47619048,5.33333333 C6.57142857,5.23809524 6.57142857,5.23809524 6.47619048,5.33333333 C6.47619048,5.33333333 6.47619048,5.33333333 6.47619048,5.33333333 C6.47619048,5.33333333 6.47619048,5.33333333 6.47619048,5.33333333 Z" id="Path" fill="#F5FAFD"></path>
                    </g>
                    <path d="M14.5714286,10.0952381 C15.4285714,13.5238095 15.2380952,17.1428571 12.7619048,18.6666667 C17.6190476,16.1904762 18.7619048,8.66666667 14.7619048,0 C14.1904762,1.52380952 13.2380952,2.95238095 11.9047619,4 C13.1428571,5.80952381 14.0952381,7.9047619 14.5714286,10.0952381 Z" id="Path" fill="url(#radialGradient-1)"></path>
                    <path d="M8,19.4285714 L8,19.4285714 C8,19.4285714 7.61904762,19.3333333 7.61904762,19.047619 C6.57142857,18.4761905 5.71428571,17.8095238 5.04761905,16.952381 C6.19047619,15.8095238 7.52380952,14.952381 8.95238095,14.2857143 C9.71428571,15.7142857 10.1904762,17.3333333 10.2857143,18.952381 C11.5238095,18.4761905 12.7619048,17.8095238 13.8095238,17.047619 C14.7619048,14.0952381 13.2380952,8.28571429 8.76190476,2.38095238 C7.04761905,3.04761905 5.42857143,3.80952381 3.9047619,4.66666667 C4.57142857,6.0952381 5.80952381,8.66666667 6.76190476,10.2857143 C5.23809524,11.1428571 3.9047619,12.1904762 2.76190476,13.5238095 C1.71428571,11.4285714 1.14285714,9.04761905 1.04761905,6.76190476 C0.952380952,7.14285714 0.857142857,7.71428571 0.761904762,8.19047619 C0.285714286,12.3809524 2.0952381,17.1428571 5.33333333,18.6666667 C5.61904762,18.7619048 5.9047619,18.952381 6.19047619,19.047619 C6.76190476,19.2380952 7.42857143,19.3333333 8,19.4285714 Z" id="Path" fill="url(#radialGradient-2)"></path>
                    <path d="M8,19.4285714 L8,19.4285714 C8,19.4285714 7.61904762,19.3333333 7.61904762,19.047619 C6.57142857,18.4761905 5.71428571,17.8095238 5.04761905,16.952381 C6.19047619,15.8095238 7.52380952,14.952381 8.95238095,14.2857143 C9.71428571,15.7142857 10.1904762,17.3333333 10.2857143,18.952381 C11.5238095,18.4761905 12.7619048,17.8095238 13.8095238,17.047619 C14.7619048,14.0952381 13.2380952,8.28571429 8.76190476,2.38095238 C7.04761905,3.04761905 5.42857143,3.80952381 3.9047619,4.66666667 C4.57142857,6.0952381 5.80952381,8.66666667 6.76190476,10.2857143 C5.23809524,11.1428571 3.9047619,12.1904762 2.76190476,13.5238095 C1.71428571,11.4285714 1.14285714,9.04761905 1.04761905,6.76190476 C0.952380952,7.14285714 0.857142857,7.71428571 0.761904762,8.19047619 C0.285714286,12.3809524 2.0952381,17.1428571 5.33333333,18.6666667 C5.61904762,18.7619048 5.9047619,18.952381 6.19047619,19.047619 C6.76190476,19.2380952 7.42857143,19.3333333 8,19.4285714 Z" id="Path" fill="url(#radialGradient-3)"></path>
                    <path d="M13.8095238,16.952381 C14.1904762,15.4285714 14.1904762,13.9047619 13.7142857,12.3809524 C12.952381,14 11.6190476,15.7142857 9.80952381,16 L9.71428571,16 C10.0952381,16.8571429 10.2857143,17.8095238 10.2857143,18.8571429 C11.5238095,18.4761905 12.7619048,17.8095238 13.8095238,16.952381 Z" id="Path" fill="#009EE0"></path>
                    <path d="M24.7619048,6.76190476 L27.047619,6.76190476 C27.047619,6.85714286 27.1428571,6.95238095 27.1428571,7.04761905 C27.1428571,7.14285714 27.1428571,7.23809524 27.1428571,7.33333333 C27.1428571,7.61904762 27.047619,7.9047619 26.952381,8.19047619 C26.7619048,8.38095238 26.5714286,8.47619048 26.2857143,8.47619048 L20.4761905,8.47619048 C20.4761905,8.38095238 20.3809524,8.28571429 20.3809524,8.19047619 C20.3809524,8.0952381 20.3809524,8 20.3809524,7.9047619 C20.3809524,7.61904762 20.4761905,7.33333333 20.5714286,7.04761905 C20.7619048,6.85714286 20.952381,6.76190476 21.2380952,6.76190476 L22.8571429,6.76190476 L22.8571429,5.61904762 C22.8571429,5.42857143 22.952381,5.33333333 23.047619,5.14285714 C23.2380952,4.95238095 23.5238095,4.95238095 23.7142857,4.95238095 L24.6666667,4.95238095 L24.7619048,6.76190476 Z M20.7619048,11.7142857 C20.7619048,10.952381 21.047619,10.1904762 21.5238095,9.61904762 C22.1904762,9.04761905 23.047619,8.76190476 23.9047619,8.85714286 C24.2857143,8.85714286 24.7619048,8.95238095 25.1428571,9.04761905 C25.5238095,9.14285714 25.8095238,9.33333333 26.0952381,9.61904762 C26.3809524,9.9047619 26.5714286,10.1904762 26.6666667,10.4761905 C26.7619048,10.8571429 26.8571429,11.2380952 26.8571429,11.7142857 C26.8571429,12.4761905 26.5714286,13.2380952 26.0952381,13.8095238 C25.4285714,14.3809524 24.5714286,14.6666667 23.7142857,14.5714286 C23.3333333,14.5714286 22.8571429,14.4761905 22.4761905,14.3809524 C22.0952381,14.2857143 21.8095238,14.0952381 21.5238095,13.8095238 C21.2380952,13.5238095 21.047619,13.2380952 20.952381,12.8571429 C20.7619048,12.4761905 20.6666667,12.0952381 20.7619048,11.7142857 Z M22.6666667,11.7142857 C22.6666667,12.0952381 22.7619048,12.3809524 22.952381,12.6666667 C23.2380952,12.8571429 23.5238095,12.952381 23.9047619,12.952381 C24.0952381,12.952381 24.1904762,12.952381 24.3809524,12.8571429 C24.5714286,12.8571429 24.6666667,12.7619048 24.7619048,12.6666667 C24.8571429,12.3809524 24.952381,12 24.952381,11.6190476 C24.952381,11.2380952 24.8571429,10.952381 24.6666667,10.6666667 C24.3809524,10.4761905 24.0952381,10.3809524 23.7142857,10.3809524 C23.5238095,10.3809524 23.4285714,10.3809524 23.2380952,10.4761905 C23.047619,10.4761905 22.952381,10.5714286 22.8571429,10.6666667 C22.6666667,10.952381 22.5714286,11.3333333 22.6666667,11.7142857 Z M29.3333333,9.52380952 L30.7619048,9.52380952 L30.8571429,9.80952381 C30.8571429,9.9047619 30.8571429,10 30.8571429,10 C30.8571429,10.2857143 30.8571429,10.5714286 30.6666667,10.8571429 C30.4761905,11.047619 30.2857143,11.1428571 30,11.1428571 L29.3333333,11.1428571 L29.3333333,16.3809524 L27.4285714,16.3809524 L27.4285714,6 C27.4285714,5.80952381 27.5238095,5.71428571 27.6190476,5.61904762 C27.8095238,5.42857143 28.0952381,5.42857143 28.3809524,5.42857143 L29.3333333,5.42857143 L29.3333333,9.52380952 L29.3333333,9.52380952 Z" id="Shape" fill="#032C82"></path>
                    <path d="M31.6190476,10 C31.6190476,9.33333333 31.6190476,8.57142857 31.8095238,7.9047619 C31.9047619,7.42857143 32.0952381,6.95238095 32.3809524,6.57142857 C32.5714286,6.28571429 32.952381,6 33.3333333,5.80952381 C33.8095238,5.61904762 34.2857143,5.61904762 34.7619048,5.61904762 C35.6190476,5.52380952 36.4761905,5.9047619 36.952381,6.66666667 C37.5238095,7.71428571 37.7142857,8.85714286 37.7142857,9.9047619 C37.7142857,10.5714286 37.6190476,11.3333333 37.5238095,12 C37.4285714,12.4761905 37.2380952,12.952381 36.952381,13.3333333 C36.6666667,13.6190476 36.3809524,13.9047619 36,14.0952381 C35.5238095,14.2857143 35.047619,14.2857143 34.5714286,14.2857143 C33.7142857,14.3809524 32.952381,13.9047619 32.4761905,13.2380952 C31.8095238,12.2857143 31.6190476,11.1428571 31.6190476,10 Z M33.5238095,10 C33.5238095,10.4761905 33.5238095,10.8571429 33.6190476,11.3333333 C33.6190476,11.6190476 33.7142857,11.9047619 33.8095238,12.1904762 C33.9047619,12.3809524 34,12.5714286 34.1904762,12.6666667 C34.3809524,12.7619048 34.5714286,12.7619048 34.7619048,12.7619048 C34.952381,12.7619048 35.047619,12.7619048 35.2380952,12.6666667 C35.3333333,12.6666667 35.5238095,12.5714286 35.6190476,12.4761905 C35.7142857,12.1904762 35.7142857,11.8095238 35.8095238,11.4285714 C35.9047619,10.952381 35.9047619,10.4761905 35.9047619,10 C35.9047619,9.52380952 35.9047619,9.14285714 35.8095238,8.66666667 C35.8095238,8.38095238 35.7142857,8.0952381 35.6190476,7.80952381 C35.5238095,7.61904762 35.4285714,7.42857143 35.2380952,7.33333333 C35.047619,7.23809524 34.8571429,7.23809524 34.6666667,7.23809524 C34.4761905,7.23809524 34.3809524,7.23809524 34.1904762,7.33333333 C34.0952381,7.33333333 33.9047619,7.42857143 33.8095238,7.52380952 C33.7142857,7.9047619 33.6190476,8.19047619 33.6190476,8.57142857 C33.5238095,8.95238095 33.5238095,9.42857143 33.5238095,10 L33.5238095,10 Z M40.6666667,16.3809524 L38.7619048,16.3809524 L38.7619048,6 C38.7619048,5.80952381 38.8571429,5.71428571 38.952381,5.61904762 C39.1428571,5.52380952 39.4285714,5.42857143 39.6190476,5.42857143 L40.6666667,5.42857143 L40.6666667,16.3809524 Z" id="Shape" fill="#032C82"></path>
                    <path d="M52,14.1904762 C52,14.4761905 52,14.7619048 51.8095238,15.047619 C51.6190476,15.2380952 51.4285714,15.3333333 51.1428571,15.3333333 L42.2857143,15.3333333 C42.2857143,15.2380952 42.2857143,15.1428571 42.1904762,15.047619 C42.1904762,14.952381 42.1904762,14.8571429 42.1904762,14.8571429 C42.1904762,14.5714286 42.2857143,14.2857143 42.3809524,14 C42.5714286,13.8095238 42.7619048,13.7142857 43.047619,13.7142857 L51.9047619,13.7142857 C51.9047619,13.8095238 51.9047619,13.9047619 52,14 C52,14.0952381 52,14.0952381 52,14.1904762 Z M50.952381,10.6666667 L51.047619,10.952381 C51.047619,11.047619 51.047619,11.1428571 51.047619,11.2380952 C51.047619,11.5238095 51.047619,11.8095238 50.8571429,12.0952381 C50.6666667,12.2857143 50.4761905,12.3809524 50.1904762,12.3809524 L43.3333333,12.3809524 L43.3333333,5.71428571 L50.7619048,5.71428571 L50.7619048,7.33333333 L45.2380952,7.33333333 L45.2380952,8.19047619 L50.6666667,8.19047619 L50.6666667,9.80952381 L45.2380952,9.80952381 L45.2380952,10.6666667 L50.952381,10.6666667 Z" id="Shape" fill="#032C82"></path>
                    <path d="M59.4285714,6.0952381 C59.4285714,6.19047619 59.4285714,6.28571429 59.4285714,6.38095238 C59.4285714,6.66666667 59.4285714,6.95238095 59.2380952,7.23809524 C59.047619,7.42857143 58.8571429,7.52380952 58.5714286,7.52380952 L57.3333333,7.52380952 L57.3333333,7.71428571 C57.3333333,8.0952381 57.3333333,8.38095238 57.5238095,8.76190476 C57.6190476,9.04761905 57.8095238,9.33333333 58,9.52380952 C58.1904762,9.80952381 58.4761905,10 58.7619048,10.0952381 C59.1428571,10.2857143 59.5238095,10.4761905 59.9047619,10.5714286 L59.2380952,12.0952381 C58.6666667,11.9047619 58.1904762,11.6190476 57.6190476,11.3333333 C57.1428571,11.047619 56.7619048,10.6666667 56.3809524,10.1904762 C56.0952381,10.6666667 55.7142857,11.047619 55.2380952,11.3333333 C54.7619048,11.7142857 54.1904762,12 53.5238095,12.1904762 L52.7619048,10.7619048 C53.1428571,10.5714286 53.6190476,10.3809524 54,10.1904762 C54.2857143,10 54.5714286,9.80952381 54.7619048,9.52380952 C54.952381,9.33333333 55.1428571,9.04761905 55.2380952,8.76190476 C55.3333333,8.38095238 55.3333333,8.0952381 55.3333333,7.71428571 L55.3333333,7.42857143 L53.3333333,7.42857143 C53.3333333,7.42857143 53.3333333,7.33333333 53.3333333,7.23809524 C53.3333333,7.14285714 53.3333333,7.04761905 53.3333333,6.95238095 C53.3333333,6.66666667 53.4285714,6.38095238 53.5238095,6.0952381 C53.7142857,5.9047619 53.9047619,5.80952381 54.1904762,5.80952381 L59.4285714,5.80952381 C59.4285714,5.9047619 59.4285714,6 59.4285714,6.0952381 Z M62.6666667,15.5238095 C62.6666667,15.8095238 62.6666667,16.0952381 62.4761905,16.3809524 C62.2857143,16.5714286 62.0952381,16.6666667 61.8095238,16.6666667 L54.952381,16.6666667 L54.952381,12.6666667 L56.8571429,12.6666667 L56.8571429,14.952381 L62.5714286,14.952381 C62.5714286,15.047619 62.6666667,15.047619 62.6666667,15.1428571 C62.6666667,15.3333333 62.6666667,15.4285714 62.6666667,15.5238095 Z M62.2857143,13.5238095 L60.3809524,13.5238095 L60.3809524,6 C60.3809524,5.80952381 60.4761905,5.71428571 60.5714286,5.61904762 C60.7619048,5.52380952 61.047619,5.42857143 61.2380952,5.42857143 L62.2857143,5.42857143 L62.2857143,13.5238095 Z" id="Shape" fill="#032C82"></path>
                    <path d="M72.7619048,11.1428571 C72.7619048,11.4285714 72.7619048,11.7142857 72.5714286,12 C72.3809524,12.1904762 72.1904762,12.2857143 71.9047619,12.2857143 L69.6190476,12.2857143 L69.6190476,13.8095238 L73.5238095,13.8095238 C73.5238095,13.9047619 73.6190476,14 73.6190476,14.0952381 C73.6190476,14.1904762 73.6190476,14.2857143 73.6190476,14.2857143 C73.6190476,14.5714286 73.5238095,14.8571429 73.4285714,15.1428571 C73.2380952,15.3333333 73.047619,15.4285714 72.7619048,15.4285714 L63.8095238,15.4285714 C63.8095238,15.3333333 63.7142857,15.2380952 63.7142857,15.1428571 C63.7142857,15.047619 63.7142857,14.952381 63.7142857,14.952381 C63.7142857,14.6666667 63.7142857,14.3809524 63.9047619,14.0952381 C64.0952381,13.9047619 64.2857143,13.8095238 64.5714286,13.8095238 L67.7142857,13.8095238 L67.7142857,12.2857143 L64.8571429,12.2857143 L64.8571429,8.19047619 L70.4761905,8.19047619 L70.4761905,7.33333333 L64.952381,7.33333333 C64.952381,7.23809524 64.8571429,7.14285714 64.8571429,7.04761905 C64.8571429,6.95238095 64.8571429,6.85714286 64.8571429,6.85714286 C64.8571429,6.57142857 64.8571429,6.28571429 65.047619,6 C65.2380952,5.80952381 65.4285714,5.71428571 65.7142857,5.71428571 L72.3809524,5.71428571 L72.3809524,9.71428571 L66.8571429,9.71428571 L66.8571429,10.5714286 L72.6666667,10.5714286 C72.6666667,10.6666667 72.7619048,10.7619048 72.7619048,10.8571429 C72.6666667,10.952381 72.7619048,11.047619 72.7619048,11.1428571 Z" id="Path" fill="#032C82"></path>
                </g>
            </g>
        </g>
    </g>
</svg>